<?xml version="1.0" encoding="UTF-8"?>
<svg version="1.1" xmlns="http://www.w3.org/2000/svg" width="612" height="380">
<path d="M0 0 C0.65452148 0.29777344 1.30904297 0.59554687 1.98339844 0.90234375 C38.70110224 17.84627217 66.48424048 48.32342734 80.734375 85.93847656 C87.69909241 104.88831184 91.14596674 125.77119583 90 146 C89.94634277 147.02383789 89.94634277 147.02383789 89.89160156 148.06835938 C88.67848992 168.84178931 83.46369135 188.46963491 74 207 C73.64534668 207.69706055 73.29069336 208.39412109 72.92529297 209.11230469 C54.0291099 245.64662535 20.68183755 272.10946728 -18.32421875 284.6328125 C-55.70971293 295.93665218 -97.64606395 291.5462549 -132.125 273.625 C-145.59222494 266.35896236 -157.02646966 257.6067271 -168 247 C-168.86367187 246.18789063 -169.72734375 245.37578125 -170.6171875 244.5390625 C-191.86108588 224.08932854 -204.65818984 197.53814571 -211 169 C-211.35191406 167.45505859 -211.35191406 167.45505859 -211.7109375 165.87890625 C-219.16024461 127.82266339 -210.18036639 86.2646598 -189 54 C-164.49716931 19.17120849 -128.65617598 -3.84485645 -86.79443359 -11.39794922 C-57.56878621 -16.18276818 -26.92329169 -12.33214627 0 0 Z M-147.60498047 65.35058594 C-167.16038761 88.47209988 -176.0522732 118.03681134 -174 148 C-171.02703277 179.33443526 -155.49945629 205.54384888 -132 226 C-112.61605282 241.45417201 -88.43227462 249.4458237 -63.75 249.3125 C-62.66025879 249.30758545 -61.57051758 249.3026709 -60.44775391 249.29760742 C-32.19198943 248.88989142 -3.92975453 237.30816759 16 217 C19.17138606 213.45651991 22.11582541 209.77994212 25 206 C25.75539063 205.01 26.51078125 204.02 27.2890625 203 C44.84369821 178.86991656 51.72993906 149.20696465 47.3125 119.6484375 C43.66307816 99.51508763 35.15943608 81.65078562 22 66 C21.51015625 65.38898438 21.0203125 64.77796875 20.515625 64.1484375 C2.95965033 42.72259745 -25.8533766 29.80702243 -53 27 C-89.28422223 24.22129708 -123.36078209 38.4496032 -147.60498047 65.35058594 Z " fill="#81AB3B" transform="translate(376,41)"/>
<path d="M0 0 C0.66 0 1.32 0 2 0 C2 0.99 2 1.98 2 3 C2.7113208 2.99476318 3.4226416 2.98952637 4.15551758 2.98413086 C7.37450275 2.96335982 10.59347383 2.95033942 13.8125 2.9375 C14.93205078 2.92912109 16.05160156 2.92074219 17.20507812 2.91210938 C18.81479492 2.90727539 18.81479492 2.90727539 20.45703125 2.90234375 C21.9416687 2.89448853 21.9416687 2.89448853 23.45629883 2.88647461 C26 3 26 3 29 4 C30.93424377 4.20096039 32.8726514 4.36335658 34.8125 4.5 C38.92546346 4.81408085 42.94526157 5.21157864 47 6 C47.33 5.34 47.66 4.68 48 4 C49.32 4 50.64 4 52 4 C53.0625 6.375 53.0625 6.375 54 9 C53.67 9.66 53.34 10.32 53 11 C54.0725 11.12375 55.145 11.2475 56.25 11.375 C59.44491044 11.90748507 61.23439759 12.51842728 64 14 C64.99 14 65.98 14 67 14 C69.01151741 14.63106429 71.01363702 15.29373761 73 16 C72.67 16.99 72.34 17.98 72 19 C73.0725 19.28875 74.145 19.5775 75.25 19.875 C78.11194556 20.73358367 80.38540929 21.6442863 83 23 C83.66 23 84.32 23 85 23 C85.33 24.65 85.66 26.3 86 28 C82.46174045 27.36700861 80.18688498 25.90892966 77.25 23.875 C70.2369656 19.29100851 62.72150892 16.1740259 55 13 C54.03835938 12.60425781 53.07671875 12.20851563 52.0859375 11.80078125 C50.21679901 10.94026779 50.21679901 10.94026779 49 11 C49.99 11.99 50.98 12.98 52 14 C52.66 13.67 53.32 13.34 54 13 C54.99 13.99 54.99 13.99 56 15 C55.01 15.66 54.02 16.32 53 17 C53.99 17.33 54.98 17.66 56 18 C56 18.66 56 19.32 56 20 C56.66 19.34 57.32 18.68 58 18 C58.66 17.34 59.32 16.68 60 16 C64.66666667 18.33333333 69.33333333 20.66666667 74 23 C74 24.32 74 25.64 74 27 C76.31 27 78.62 27 81 27 C82.85776765 30.13498292 83.20140476 32.37471432 83 36 C83.4125 35.484375 83.825 34.96875 84.25 34.4375 C86 33 86 33 88 33.125 C90.24420822 34.1068411 91.47366265 35.09207831 93 37 C93 37.66 93 38.32 93 39 C94.32 39.33 95.64 39.66 97 40 C97 40.99 97 41.98 97 43 C97.99 43.33 98.98 43.66 100 44 C100 44.66 100 45.32 100 46 C100.99 46 101.98 46 103 46 C104.64826111 48.96687001 105.44271087 51.65626525 106 55 C104.35 55 102.7 55 101 55 C100.67 55.66 100.34 56.32 100 57 C95.22111963 55.64383125 91.70230665 53.62593844 87.625 50.8125 C63.04667965 34.53859811 33.53621898 29.6082143 4.734375 34.96484375 C-19.03988279 39.8909091 -38.56925633 51.59111229 -55.109375 69.19921875 C-57 71 -57 71 -59 71 C-59 70.34 -59 69.68 -59 69 C-59.66 69 -60.32 69 -61 69 C-61.33 69.66 -61.66 70.32 -62 71 C-62.99 71.33 -63.98 71.66 -65 72 C-70.49559719 77.05000823 -75.24269799 82.55891083 -79 89 C-79.515625 89.495 -80.03125 89.99 -80.5625 90.5 C-82.16730732 91.9851654 -82.16730732 91.9851654 -82.9375 94.375 C-84 97 -84 97 -85.8125 99.125 C-100.61646039 118.58163365 -103.73303832 148.29842755 -103 172 C-102.97292969 173.59714844 -102.97292969 173.59714844 -102.9453125 175.2265625 C-102.51730791 185.17137514 -99.80295497 194.50727289 -97 204 C-96.78794922 204.72670898 -96.57589844 205.45341797 -96.35742188 206.20214844 C-93.53442324 215.86189007 -93.53442324 215.86189007 -88.25390625 224.32421875 C-86.65458966 226.46162317 -85.5894433 228.7189533 -84.4375 231.125 C-82.65346747 234.83985255 -80.66752898 237.83848417 -78 241 C-78 241.66 -78 242.32 -78 243 C-77.34 243 -76.68 243 -76 243 C-74.73828125 244.7578125 -74.73828125 244.7578125 -73.3125 247.125 C-70.80964638 251.01968442 -68.25660229 253.80108701 -64.65234375 256.671875 C-62.25528124 258.59859191 -60.173363 260.826637 -58 263 C-56.13411509 264.57641848 -54.25533996 266.13267837 -52.35546875 267.66796875 C-51.90816406 268.10753906 -51.46085937 268.54710937 -51 269 C-51 269.66 -51 270.32 -51 271 C-49.35 271.66 -47.7 272.32 -46 273 C-47.65234375 273.7109375 -47.65234375 273.7109375 -50 274 C-80.95950533 258.26723503 -104.78251727 225.09678582 -116 193 C-117.98847272 186.74334706 -119.57639184 180.4062367 -121 174 C-121.35191406 172.45505859 -121.35191406 172.45505859 -121.7109375 170.87890625 C-129.16024461 132.82266339 -120.18036639 91.2646598 -99 59 C-83.4717469 36.92784449 -63.04190088 19.15868049 -39 7 C-37.91589844 6.45085938 -36.83179688 5.90171875 -35.71484375 5.3359375 C-28.98700321 2.22810922 -23.38111358 1.3461612 -16 2 C-16 2.66 -16 3.32 -16 4 C-10.72 3.34 -5.44 2.68 0 2 C0 1.34 0 0.68 0 0 Z " fill="#62A241" transform="translate(286,36)"/>
<path d="M0 0 C0.66 0 1.32 0 2 0 C1.99476318 0.78012451 1.98952637 1.56024902 1.98413086 2.36401367 C1.96306991 5.97183392 1.95024862 9.57964116 1.9375 13.1875 C1.92912109 14.41404297 1.92074219 15.64058594 1.91210938 16.90429688 C1.88205878 28.29347161 2.10841325 39.36983908 5.25 50.375 C5.47107422 51.17518555 5.69214844 51.97537109 5.91992188 52.79980469 C6.5947553 55.20569099 7.29239569 57.60356672 8 60 C8.31807617 61.09006348 8.31807617 61.09006348 8.64257812 62.20214844 C11.46557676 71.86189007 11.46557676 71.86189007 16.74609375 80.32421875 C18.34541034 82.46162317 19.4105567 84.7189533 20.5625 87.125 C22.34653253 90.83985255 24.33247102 93.83848417 27 97 C27 97.66 27 98.32 27 99 C27.66 99 28.32 99 29 99 C30.26171875 100.7578125 30.26171875 100.7578125 31.6875 103.125 C34.19035362 107.01968442 36.74339771 109.80108701 40.34765625 112.671875 C42.74471876 114.59859191 44.826637 116.826637 47 119 C48.86588491 120.57641848 50.74466004 122.13267837 52.64453125 123.66796875 C53.31548828 124.32732422 53.31548828 124.32732422 54 125 C54 125.66 54 126.32 54 127 C55.65 127.66 57.3 128.32 59 129 C57.34765625 129.7109375 57.34765625 129.7109375 55 130 C25.22514687 114.86924254 1.24423582 82.84788895 -10 52 C-11.43453253 46.61567837 -12.08895566 41.56467089 -12 36 C-10.02 36 -8.04 36 -6 36 C-6 37.65 -6 39.3 -6 41 C-3.2160817 39.60804085 -3.02101003 37.84424221 -2 35 C-1.67 35 -1.34 35 -1 35 C-1 33.02 -1 31.04 -1 29 C-1.99 29 -2.98 29 -4 29 C-3.835 28.236875 -3.67 27.47375 -3.5 26.6875 C-2.83726826 21.7998534 -2.71465401 16.92641464 -3 12 C-3.33 11.67 -3.66 11.34 -4 11 C-2.95902388 7.13351728 -1.96301592 3.50538557 0 0 Z " fill="#409246" transform="translate(181,180)"/>
<path d="M0 0 C0.33 0 0.66 0 1 0 C1.28875 0.928125 1.5775 1.85625 1.875 2.8125 C2.8875 6.09791667 2.8875 6.09791667 5 9 C5.50244141 11.62866211 5.50244141 11.62866211 5.8515625 14.77734375 C5.98046875 15.93169922 6.109375 17.08605469 6.2421875 18.27539062 C6.36851562 19.48388672 6.49484375 20.69238281 6.625 21.9375 C6.82609375 23.69803711 6.82609375 23.69803711 7.03125 25.49414062 C10.84604647 60.70315501 2.17725946 92.93017186 -16 123 C-16.66 123 -17.32 123 -18 123 C-17.67 121.02 -17.34 119.04 -17 117 C-19.762219 116.51759361 -19.762219 116.51759361 -23 117 C-25.16497258 118.88619529 -26.8263513 120.56520073 -28.625 122.75 C-29.55402237 123.8286982 -30.48369798 124.90683418 -31.4140625 125.984375 C-32.26742188 126.97953125 -33.12078125 127.9746875 -34 129 C-35.31781813 130.34867006 -36.64458055 131.68912485 -38 133 C-38.99 132.67 -39.98 132.34 -41 132 C-38.06355016 126.66100029 -34.22584837 123.62021031 -29.33984375 120.02734375 C-26.87580262 117.89238992 -25.62972223 115.79035527 -24 113 C-23.34 113 -22.68 113 -22 113 C-21.34 111.02 -20.68 109.04 -20 107 C-19.34 107 -18.68 107 -18 107 C-17.7421875 106.28714844 -17.484375 105.57429688 -17.21875 104.83984375 C-15.50185114 100.8392493 -13.07672798 97.42148256 -10.65625 93.81640625 C-8.96199416 90.93537214 -7.94191921 88.19781571 -7 85 C-6.34 85 -5.68 85 -5 85 C-4.81824219 84.14277344 -4.63648438 83.28554687 -4.44921875 82.40234375 C-2.32549729 72.74213382 -2.32549729 72.74213382 -0.4375 68.4375 C3.55575714 58.88840683 3.26314261 48.43004766 3.125 38.25 C3.11597656 36.96867187 3.10695313 35.68734375 3.09765625 34.3671875 C3.07435327 31.24458779 3.04164054 28.12239975 3 25 C2.34 25.66 1.68 26.32 1 27 C-0.125 23.25 -0.125 23.25 1 21 C0.34 20.67 -0.32 20.34 -1 20 C-0.34 20 0.32 20 1 20 C0.85970581 17.8537974 0.71261836 15.70803782 0.5625 13.5625 C0.48128906 12.36753906 0.40007812 11.17257813 0.31640625 9.94140625 C0.32343886 7.11429756 0.32343886 7.11429756 -1 6 C-1.125 3.5 -1.125 3.5 -1 1 C-0.67 0.67 -0.34 0.34 0 0 Z " fill="#5E9E53" transform="translate(458,139)"/>
<path d="M0 0 C1.32 0.33 2.64 0.66 4 1 C4 1.66 4 2.32 4 3 C4.66 3 5.32 3 6 3 C10 8.41176471 10 8.41176471 10 11 C10.61875 11.24363281 11.2375 11.48726562 11.875 11.73828125 C14.48162855 13.28596695 14.92267417 14.39318614 16 17.1875 C17.40829109 20.62635033 18.9836529 23.7844764 20.859375 27 C24.874042 34.03941611 28.42735841 40.64962883 29.578125 48.74609375 C29.93376533 51.06175301 29.93376533 51.06175301 30.95654297 53.35058594 C35.0059149 63.63223877 34.2383179 74.84212202 34.125 85.6875 C34.11494678 87.37173945 34.10582508 89.05598473 34.09765625 90.74023438 C34.07583596 94.82696937 34.04143636 98.91341875 34 103 C33.67 103 33.34 103 33 103 C32.9906543 102.4330542 32.98130859 101.8661084 32.97167969 101.28198242 C32.35622865 71.29684602 25.47319855 45.31853903 6 22 C5.195625 20.96875 4.39125 19.9375 3.5625 18.875 C0.80523653 15.78148488 -2.15150659 13.16678773 -5.328125 10.515625 C-7 9 -7 9 -8 7 C-7.13375 6.814375 -7.13375 6.814375 -6.25 6.625 C-3.97664233 5.99351176 -2.0746471 5.11141809 0 4 C0 2.68 0 1.36 0 0 Z " fill="#B3CA3E" transform="translate(391,85)"/>
<path d="M0 0 C0.66 0 1.32 0 2 0 C2 0.99 2 1.98 2 3 C2.7113208 2.99476318 3.4226416 2.98952637 4.15551758 2.98413086 C7.37450275 2.96335982 10.59347383 2.95033942 13.8125 2.9375 C14.93205078 2.92912109 16.05160156 2.92074219 17.20507812 2.91210938 C18.81479492 2.90727539 18.81479492 2.90727539 20.45703125 2.90234375 C21.9416687 2.89448853 21.9416687 2.89448853 23.45629883 2.88647461 C26 3 26 3 29 4 C30.93424377 4.20096039 32.8726514 4.36335658 34.8125 4.5 C38.92546346 4.81408085 42.94526157 5.21157864 47 6 C47.33 5.34 47.66 4.68 48 4 C49.32 4 50.64 4 52 4 C53.0625 6.375 53.0625 6.375 54 9 C53.67 9.66 53.34 10.32 53 11 C54.0725 11.12375 55.145 11.2475 56.25 11.375 C59.44491044 11.90748507 61.23439759 12.51842728 64 14 C64.99 14 65.98 14 67 14 C69.01151741 14.63106429 71.01363702 15.29373761 73 16 C72.67 16.99 72.34 17.98 72 19 C73.0725 19.28875 74.145 19.5775 75.25 19.875 C78.11194556 20.73358367 80.38540929 21.6442863 83 23 C83.66 23 84.32 23 85 23 C85.33 24.65 85.66 26.3 86 28 C82.46174045 27.36700861 80.18688498 25.90892966 77.25 23.875 C70.2369656 19.29100851 62.72150892 16.1740259 55 13 C54.15308594 12.61972656 53.30617188 12.23945312 52.43359375 11.84765625 C49.4153531 10.79635895 46.62116784 10.50085679 43.4375 10.25 C42.32246094 10.15203125 41.20742188 10.0540625 40.05859375 9.953125 C37.01849764 9.99971651 35.52971744 10.39186666 33 12 C32.01 11.01 32.01 11.01 31 10 C31.99 9.67 32.98 9.34 34 9 C32.39679026 8.80448662 30.79237014 8.61888017 29.1875 8.4375 C28.29417969 8.33308594 27.40085937 8.22867188 26.48046875 8.12109375 C23.86624428 7.84341291 23.86624428 7.84341291 21 9 C20.01 8.67 19.02 8.34 18 8 C17.505 7.01 17.505 7.01 17 6 C14.41638482 5.94592433 11.83390745 5.906293 9.25 5.875 C8.52039063 5.85824219 7.79078125 5.84148438 7.0390625 5.82421875 C3.02831495 5.78775741 0.51464692 6.20591245 -3 8 C-5.8203125 7.8359375 -5.8203125 7.8359375 -9.125 7.375 C-15.28234731 6.81935271 -20.53972942 7.38962313 -26.5625 8.75 C-27.32385254 8.91935059 -28.08520508 9.08870117 -28.86962891 9.26318359 C-33.08246352 10.28666175 -36.32769566 11.62018266 -40 14 C-40.66 14 -41.32 14 -42 14 C-42 14.66 -42 15.32 -42 16 C-43.65 16 -45.3 16 -47 16 C-47 16.66 -47 17.32 -47 18 C-53.5 22 -53.5 22 -58 22 C-57.11842186 18.20243265 -55.69275169 16.53397029 -52.5078125 14.5 C-51.05705332 13.64907073 -49.59539343 12.81653291 -48.125 12 C-47.35849121 11.56574707 -46.59198242 11.13149414 -45.80224609 10.68408203 C-35.86116771 5.14045912 -27.63187959 0.96961697 -16 2 C-16 2.66 -16 3.32 -16 4 C-10.72 3.34 -5.44 2.68 0 2 C0 1.34 0 0.68 0 0 Z " fill="#5EA342" transform="translate(286,36)"/>
<path d="M0 0 C0.495 1.485 0.495 1.485 1 3 C-0.42270026 5.37820022 -1.88595046 7.57021228 -3.5 9.8125 C-15.06227943 26.53698164 -21.20667024 43.96978174 -24 64 C-24.33 64 -24.66 64 -25 64 C-24.96519531 62.87980469 -24.93039063 61.75960937 -24.89453125 60.60546875 C-24.86639161 59.13282749 -24.83909163 57.66017002 -24.8125 56.1875 C-24.78736328 55.44951172 -24.76222656 54.71152344 -24.73632812 53.95117188 C-24.64750197 49.72834117 -24.64750197 49.72834117 -26.34375 45.96875 C-28.07158805 44.73539424 -28.07158805 44.73539424 -30.6875 45.3125 C-31.450625 45.539375 -32.21375 45.76625 -33 46 C-33.66 47.98 -34.32 49.96 -35 52 C-35.33 52 -35.66 52 -36 52 C-35.62595956 42.27494865 -30.98637307 34.45217224 -25 27 C-23.99515117 24.66875071 -22.99477753 22.33556463 -22 20 C-20.5625 18.4375 -20.5625 18.4375 -19 17 C-18.4225 16.071875 -17.845 15.14375 -17.25 14.1875 C-14.9651032 10.95056287 -12.6482787 8.85859635 -9.60546875 6.38671875 C-7.75467603 4.78810216 -6.45038021 2.95801328 -5 1 C-2 0 -2 0 0 0 Z " fill="#8CB442" transform="translate(227,105)"/>
<path d="M0 0 C0.33 0 0.66 0 1 0 C1.433125 1.3921875 1.433125 1.3921875 1.875 2.8125 C2.8875 6.09791667 2.8875 6.09791667 5 9 C5.50244141 11.62866211 5.50244141 11.62866211 5.8515625 14.77734375 C5.98046875 15.93169922 6.109375 17.08605469 6.2421875 18.27539062 C6.43167969 20.08813477 6.43167969 20.08813477 6.625 21.9375 C6.82609375 23.69803711 6.82609375 23.69803711 7.03125 25.49414062 C9.50462108 48.32234615 6.34683359 69.06371907 0 91 C-0.33 91 -0.66 91 -1 91 C-0.4618629 85.30948637 0.1400133 79.65134116 1 74 C1.66 74 2.32 74 3 74 C2.443125 72.14375 2.443125 72.14375 1.875 70.25 C0.99732385 66.34282788 1.11099274 63.49913365 1.9375 59.59375 C3.23541659 52.45136878 3.22324212 45.48968862 3.125 38.25 C3.11597656 36.96867187 3.10695313 35.68734375 3.09765625 34.3671875 C3.07435327 31.24458779 3.04164054 28.12239975 3 25 C2.34 25.66 1.68 26.32 1 27 C-0.125 23.25 -0.125 23.25 1 21 C0.34 20.67 -0.32 20.34 -1 20 C-0.34 20 0.32 20 1 20 C0.85970581 17.8537974 0.71261836 15.70803782 0.5625 13.5625 C0.48128906 12.36753906 0.40007812 11.17257813 0.31640625 9.94140625 C0.32343886 7.11429756 0.32343886 7.11429756 -1 6 C-1.125 3.5 -1.125 3.5 -1 1 C-0.67 0.67 -0.34 0.34 0 0 Z " fill="#6FA149" transform="translate(458,139)"/>
<path d="M0 0 C0.33 0 0.66 0 1 0 C1.05534912 0.80743652 1.11069824 1.61487305 1.16772461 2.44677734 C1.41992036 6.08983819 1.67862626 9.73240786 1.9375 13.375 C2.02451172 14.64601562 2.11152344 15.91703125 2.20117188 17.2265625 C2.28818359 18.43828125 2.37519531 19.65 2.46484375 20.8984375 C2.543396 22.01911621 2.62194824 23.13979492 2.70288086 24.29443359 C2.83780869 26.96470413 2.83780869 26.96470413 4 29 C4.99 29.33 5.98 29.66 7 30 C7.33 30.99 7.66 31.98 8 33 C7.67 33.66 7.34 34.32 7 35 C7.66 35 8.32 35 9 35 C9.12748344 41.62913907 9.12748344 41.62913907 8.3125 44 C7.76187824 47.52397929 9.34334029 49.97231157 11 53 C11.95712891 53.23396484 11.95712891 53.23396484 12.93359375 53.47265625 C15.72277975 54.1844523 16.35304578 55.35449809 17.875 57.75 C19.171875 59.94140625 19.171875 59.94140625 20 62 C19.125 64.6875 19.125 64.6875 18 67 C19.30027975 69.69519712 19.30027975 69.69519712 21 72 C21 72.66 21 73.32 21 74 C22.9254644 75.1490712 22.9254644 75.1490712 25 75 C25.66 75.99 26.32 76.98 27 78 C27.66 78 28.32 78 29 78 C29.33 79.98 29.66 81.96 30 84 C31.485 84.495 31.485 84.495 33 85 C32.01 85.99 31.02 86.98 30 88 C28.515 87.01 28.515 87.01 27 86 C27 85.34 27 84.68 27 84 C26.34 84 25.68 84 25 84 C23.46690779 81.88258581 22.06369755 79.77909552 20.6875 77.5625 C20.28378174 76.92086914 19.88006348 76.27923828 19.46411133 75.61816406 C11.56197374 62.97601513 6.51339519 50.38928612 2.56884766 36.04003906 C2.03436856 34.12325479 1.4485472 32.22099816 0.859375 30.3203125 C-0.57766395 24.48171369 -0.21029179 18.47042503 -0.125 12.5 C-0.11597656 11.29601562 -0.10695312 10.09203125 -0.09765625 8.8515625 C-0.07423775 5.9008321 -0.04143993 2.95052311 0 0 Z M30 77 C31.32 77.33 32.64 77.66 34 78 C32.02 78.99 32.02 78.99 30 80 C30 79.01 30 78.02 30 77 Z " fill="#A7C63C" transform="translate(183,195)"/>
<path d="M0 0 C0 0.66 0 1.32 0 2 C-0.66 2.33 -1.32 2.66 -2 3 C-2.65213292 5.02463255 -2.65213292 5.02463255 -3 7 C-6.26668948 7.76222754 -9.47813025 8.14978859 -12.8125 8.4375 C-17.43312725 8.9002534 -21.61159373 9.43271205 -26 11 C-27.37466625 13.47636012 -27.37466625 13.47636012 -28 16 C-31.41475056 17.13825019 -32.5509358 16.70549041 -36 16 C-37.175625 16 -38.35125 16 -39.5625 16 C-42.34822826 16 -44.38314947 15.83739217 -47 15 C-47 14.34 -47 13.68 -47 13 C-49.58366245 13.14120016 -52.16682885 13.28778333 -54.75 13.4375 C-55.47960937 13.47681641 -56.20921875 13.51613281 -56.9609375 13.55664062 C-60.4272973 13.76147098 -63.65333026 14.0852002 -67 15 C-67 15.66 -67 16.32 -67 17 C-69.64 16.67 -72.28 16.34 -75 16 C-74.67 15.34 -74.34 14.68 -74 14 C-72.35 14 -70.7 14 -69 14 C-71.0072908 10.9890638 -71.83884224 10.36983503 -75 9 C-74.27586914 9.06928711 -73.55173828 9.13857422 -72.80566406 9.20996094 C-50.03945355 11.2649899 -25.65934432 11.62326324 -4.765625 0.84765625 C-3 0 -3 0 0 0 Z " fill="#96AC35" transform="translate(363,279)"/>
<path d="M0 0 C1.59403661 2.39105492 2.72906235 4.46641493 3.8828125 7.0625 C12.01031783 25.01500447 22.98700769 38.22814904 37 52 C38.33448524 53.33218043 39.66816395 54.66517106 41 56 C37.77208445 58.1519437 36.71599191 58.20086443 33 58 C33 56.68 33 55.36 33 54 C32.38001259 51.98504093 31.72045764 49.9812585 31 48 C29.35 48.66 27.7 49.32 26 50 C25.7525 49.05125 25.505 48.1025 25.25 47.125 C24.31040284 43.95700157 24.31040284 43.95700157 22.0625 42.625 C19.88067404 41.8549963 19.88067404 41.8549963 17 42 C17 39.69 17 37.38 17 35 C14.69 35 12.38 35 10 35 C10 34.01 10 33.02 10 32 C9.01 32 8.02 32 7 32 C6.875 26.25 6.875 26.25 8 24 C7.45944535 21.99104418 7.45944535 21.99104418 6.5625 19.875 C6.13130859 18.78832031 6.13130859 18.78832031 5.69140625 17.6796875 C5.46324219 17.12539062 5.23507813 16.57109375 5 16 C4.01 16 3.02 16 2 16 C2.33 14.35 2.66 12.7 3 11 C2.34 11 1.68 11 1 11 C0.67 7.37 0.34 3.74 0 0 Z " fill="#AFC758" transform="translate(207,214)"/>
<path d="M0 0 C0.54269531 0.22816406 1.08539063 0.45632813 1.64453125 0.69140625 C2.35996094 0.97886719 3.07539063 1.26632812 3.8125 1.5625 C4.52019531 1.85253906 5.22789062 2.14257812 5.95703125 2.44140625 C8.1735067 3.25063024 8.1735067 3.25063024 11 2 C11 2.66 11 3.32 11 4 C11.556875 3.690625 12.11375 3.38125 12.6875 3.0625 C15.12540433 1.94238179 17.36224186 1.43962636 20 1 C20 2.98 20 4.96 20 7 C21.299375 7.144375 22.59875 7.28875 23.9375 7.4375 C27.875 7.875 27.875 7.875 29 9 C30.34544327 9.09785341 31.69592563 9.12797985 33.04492188 9.12939453 C33.90251099 9.13254669 34.7601001 9.13569885 35.64367676 9.13894653 C37.04208801 9.13591019 37.04208801 9.13591019 38.46875 9.1328125 C39.41939331 9.13376923 40.37003662 9.13472595 41.3494873 9.13571167 C43.36368882 9.13639357 45.37789252 9.13453862 47.39208984 9.13037109 C50.48670355 9.12502298 53.5811721 9.13031577 56.67578125 9.13671875 C58.62760449 9.13605797 60.57942764 9.13477681 62.53125 9.1328125 C63.46352417 9.13483673 64.39579834 9.13686096 65.35632324 9.13894653 C66.21391235 9.13579437 67.07150146 9.13264221 67.95507812 9.12939453 C69.09305847 9.12820114 69.09305847 9.12820114 70.25402832 9.12698364 C72.02877312 9.18921087 72.02877312 9.18921087 73 8 C75.85528607 7.599617 78.69736487 7.2481773 81.5625 6.9375 C82.36880859 6.84662109 83.17511719 6.75574219 84.00585938 6.66210938 C86.00347377 6.43752551 88.0016856 6.21826764 90 6 C90 5.34 90 4.68 90 4 C92.05078125 3.77213542 94.1015625 3.54427083 96.15234375 3.31640625 C98.01140229 3.18113386 98.01140229 3.18113386 99 2 C100.99958364 1.95919217 103.00045254 1.95745644 105 2 C83.11591938 16.58938708 44.71927987 14.54454785 20.45703125 9.98828125 C15.85442417 9.01521635 11.32079556 7.84256252 6.8125 6.5 C6.13396973 6.29866455 5.45543945 6.0973291 4.75634766 5.88989258 C2.89453125 5.28125 2.89453125 5.28125 0 4 C-0.33 3.01 -0.66 2.02 -1 1 C-0.67 0.67 -0.34 0.34 0 0 Z " fill="#AAC167" transform="translate(263,319)"/>
<path d="M0 0 C2.13911742 2.05129442 3.95737463 4.15695031 5.6875 6.5625 C6.12449219 7.16191406 6.56148437 7.76132812 7.01171875 8.37890625 C8 10 8 10 8 12 C8.66 12 9.32 12 10 12 C11.26171875 13.7578125 11.26171875 13.7578125 12.6875 16.125 C15.19035362 20.01968442 17.74339771 22.80108701 21.34765625 25.671875 C23.74471876 27.59859191 25.826637 29.826637 28 32 C29.86588491 33.57641848 31.74466004 35.13267837 33.64453125 36.66796875 C34.09183594 37.10753906 34.53914063 37.54710937 35 38 C35 38.66 35 39.32 35 40 C36.65 40.66 38.3 41.32 40 42 C38.34765625 42.7109375 38.34765625 42.7109375 36 43 C21.67468114 35.72026887 10.08217159 23.37338194 -1 12 C0.32 11.67 1.64 11.34 3 11 C3.33 11.66 3.66 12.32 4 13 C4.99 13.33 5.98 13.66 7 14 C7 13.67 7 13.34 7 13 C6.34 12.67 5.68 12.34 5 12 C4.87625 11.401875 4.7525 10.80375 4.625 10.1875 C4.14066415 7.80355578 4.14066415 7.80355578 1.9375 6 C0 4 0 4 0 0 Z " fill="#4D9447" transform="translate(200,267)"/>
<path d="M0 0 C0 0.66 0 1.32 0 2 C0.66 2.66 1.32 3.32 2 4 C1.39003174 4.13575439 0.78006348 4.27150879 0.15161133 4.41137695 C-2.63023713 5.03593828 -5.40880164 5.67407622 -8.1875 6.3125 C-9.62706055 6.63250977 -9.62706055 6.63250977 -11.09570312 6.95898438 C-15.9279898 8.07927229 -19.85081227 9.16458313 -24 12 C-24.66 12 -25.32 12 -26 12 C-26 12.66 -26 13.32 -26 14 C-27.65 14 -29.3 14 -31 14 C-31 14.66 -31 15.32 -31 16 C-37.5 20 -37.5 20 -42 20 C-41.11842186 16.20243265 -39.69275169 14.53397029 -36.5078125 12.5 C-35.05705332 11.64907073 -33.59539343 10.81653291 -32.125 10 C-31.35849121 9.56574707 -30.59198242 9.13149414 -29.80224609 8.68408203 C-19.86116771 3.14045912 -11.63187959 -1.03038303 0 0 Z " fill="#2F893D" transform="translate(270,38)"/>
<path d="M0 0 C10.15746621 -0.15064039 18.07497483 3.68578844 27 8 C28.74023438 8.81984375 28.74023438 8.81984375 30.515625 9.65625 C35.50687937 12.06582108 39.69928462 14.48821455 44 18 C45.25038931 18.78360955 46.51898445 19.5398346 47.8125 20.25 C48.864375 20.8275 49.91625 21.405 51 22 C51 22.66 51 23.32 51 24 C51.556875 24.226875 52.11375 24.45375 52.6875 24.6875 C55.64187072 26.36430501 57.63102343 28.57324352 60 31 C60.928125 31.721875 61.85625 32.44375 62.8125 33.1875 C63.534375 33.785625 64.25625 34.38375 65 35 C65 35.66 65 36.32 65 37 C65.66 37 66.32 37 67 37 C67.33 37.99 67.66 38.98 68 40 C66.02 39.505 66.02 39.505 64 39 C64 38.34 64 37.68 64 37 C63.01 37 62.02 37 61 37 C61 36.34 61 35.68 61 35 C59.68 34.67 58.36 34.34 57 34 C57 33.01 57 32.02 57 31 C56.01 30.67 55.02 30.34 54 30 C52.66666667 28.33333333 51.33333333 26.66666667 50 25 C49.01 24.67 48.02 24.34 47 24 C46.505 25.485 46.505 25.485 46 27 C45.01 27.33 44.02 27.66 43 28 C43.020625 26.88625 43.04125 25.7725 43.0625 24.625 C43.26380718 21.16784079 43.26380718 21.16784079 42 19 C39.67843403 18.59270772 37.3431213 18.25561323 35 18 C35 16.68 35 15.36 35 14 C34.29875 13.9175 33.5975 13.835 32.875 13.75 C29.34718852 12.82970135 26.99900446 11.04187538 24 9 C21.77397385 8.23060319 21.77397385 8.23060319 20 8 C19.67 8.99 19.34 9.98 19 11 C18.34 11 17.68 11 17 11 C17 10.34 17 9.68 17 9 C15.68 8.67 14.36 8.34 13 8 C13.66 7.01 14.32 6.02 15 5 C14.01 5.66 13.02 6.32 12 7 C11.77570313 6.36578125 11.55140625 5.7315625 11.3203125 5.078125 C10.16214243 2.77983843 10.16214243 2.77983843 7.6171875 2.171875 C6.25980469 1.96304688 6.25980469 1.96304688 4.875 1.75 C3.96492188 1.60046875 3.05484375 1.4509375 2.1171875 1.296875 C1.06917969 1.14992187 1.06917969 1.14992187 0 1 C0 0.67 0 0.34 0 0 Z " fill="#95BD3F" transform="translate(325,45)"/>
<path d="M0 0 C1.32 0.33 2.64 0.66 4 1 C4 1.66 4 2.32 4 3 C4.66 3 5.32 3 6 3 C10 8.41176471 10 8.41176471 10 11 C10.598125 11.20625 11.19625 11.4125 11.8125 11.625 C14.85191923 13.53549209 15.69930839 15.71404225 17 19 C16.67 19.66 16.34 20.32 16 21 C15.67 19.68 15.34 18.36 15 17 C11.15902617 16.8282249 11.15902617 16.8282249 8.1875 17.75 C3.88351091 18.08756777 1.2703683 16.60458862 -2 14 C-4.1582801 11.78005475 -6.11659489 9.45601546 -8 7 C-7.38640625 6.85691406 -6.7728125 6.71382813 -6.140625 6.56640625 C-3.89792233 5.9729904 -2.03970153 5.09269725 0 4 C0 2.68 0 1.36 0 0 Z " fill="#AAC73F" transform="translate(391,85)"/>
<path d="M0 0 C1.32 0.66 2.64 1.32 4 2 C4.33 1.34 4.66 0.68 5 0 C7.86724686 0.57344937 8.8614515 0.8614515 11 3 C13.58354218 3.16687448 13.58354218 3.16687448 16 3 C16 3.66 16 4.32 16 5 C21.32932432 6.70084819 26.43109483 7.52013969 32 8 C32.495 9.485 32.495 9.485 33 11 C35.32206525 11.70491267 37.65593068 12.37212429 40 13 C40.495 13.99 40.495 13.99 41 15 C43.31 15 45.62 15 48 15 C48 17 48 17 46.5 18.625 C46.005 19.07875 45.51 19.5325 45 20 C42.01848236 18.86000796 39.12243986 17.60184699 36.2421875 16.23046875 C18.92374526 8.07039572 2.17331022 3.78152188 -17 3.9375 C-18.59134766 3.94426758 -18.59134766 3.94426758 -20.21484375 3.95117188 C-22.80995598 3.96286157 -25.40494709 3.97924724 -28 4 C-28 3.34 -28 2.68 -28 2 C-18.76 2 -9.52 2 0 2 C0 1.34 0 0.68 0 0 Z " fill="#ABC463" transform="translate(328,65)"/>
<path d="M0 0 C0.495 1.485 0.495 1.485 1 3 C0.00390625 4.82421875 0.00390625 4.82421875 -1.4375 6.6875 C-1.91058594 7.31011719 -2.38367188 7.93273437 -2.87109375 8.57421875 C-3.24363281 9.04472656 -3.61617187 9.51523438 -4 10 C-4.33 9.01 -4.66 8.02 -5 7 C-5.66 7 -6.32 7 -7 7 C-7.12375 7.5775 -7.2475 8.155 -7.375 8.75 C-8.48840968 12.75827486 -10.44304199 15.74568981 -13 19 C-13.33 18.67 -13.66 18.34 -14 18 C-14.33 20.64 -14.66 23.28 -15 26 C-17.475 25.01 -17.475 25.01 -20 24 C-24.07096405 29.28164759 -24.07096405 29.28164759 -27.6875 34.875 C-29 37 -29 37 -32 39 C-30.65939089 33.88131068 -28.36055809 31.01627674 -25 27 C-24.0927355 25.18660748 -24.0927355 25.18660748 -23.375 23.3125 C-22.08888217 20.21412524 -21.35585395 19.16738563 -19 17 C-18.4225 16.071875 -17.845 15.14375 -17.25 14.1875 C-14.9651032 10.95056287 -12.6482787 8.85859635 -9.60546875 6.38671875 C-7.75467603 4.78810216 -6.45038021 2.95801328 -5 1 C-2 0 -2 0 0 0 Z " fill="#7CAF40" transform="translate(227,105)"/>
<path d="M0 0 C1.8105533 2.71582995 2.87112015 4.96613541 4 8 C4.33 8.86625 4.66 9.7325 5 10.625 C8.26542944 21.64582436 8.24394356 32.30370384 8.125 43.6875 C8.11494678 45.37173945 8.10582508 47.05598473 8.09765625 48.74023438 C8.07583596 52.82696937 8.04143636 56.91341875 8 61 C7.67 61 7.34 61 7 61 C6.9906543 60.4330542 6.98130859 59.8661084 6.97167969 59.28198242 C6.5924037 40.80343325 4.17213413 24.27777391 -2.828125 7.125 C-4 4 -4 4 -4 1 C-3.34 1.33 -2.68 1.66 -2 2 C-2 3.32 -2 4.64 -2 6 C-1.34 6 -0.68 6 0 6 C0 4.02 0 2.04 0 0 Z " fill="#AECA4B" transform="translate(417,127)"/>
<path d="M0 0 C1.32 0 2.64 0 4 0 C5.0625 2.375 5.0625 2.375 6 5 C5.67 5.66 5.34 6.32 5 7 C6.0725 7.12375 7.145 7.2475 8.25 7.375 C11.44491044 7.90748507 13.23439759 8.51842728 16 10 C16.99 10 17.98 10 19 10 C21.01151741 10.63106429 23.01363702 11.29373761 25 12 C24.67 12.99 24.34 13.98 24 15 C25.0725 15.28875 26.145 15.5775 27.25 15.875 C30.11194556 16.73358367 32.38540929 17.6442863 35 19 C35.66 19 36.32 19 37 19 C37.495 21.475 37.495 21.475 38 24 C34.46174045 23.36700861 32.18688498 21.90892966 29.25 19.875 C22.22240581 15.29954764 14.74518581 12.13767807 7 9 C6.01773437 8.59652344 5.03546875 8.19304688 4.0234375 7.77734375 C-3.13371194 5.00104537 -10.47459516 3.45015101 -18 2 C-18 1.67 -18 1.34 -18 1 C-6.47835991 0.81548975 -6.47835991 0.81548975 -1 2 C-0.67 1.34 -0.34 0.68 0 0 Z " fill="#4B933A" transform="translate(334,40)"/>
<path d="M0 0 C0.33 1.32 0.66 2.64 1 4 C0.01 4.495 0.01 4.495 -1 5 C-1.73075648 7.3140622 -2.40138258 9.64828869 -3 12 C-1.68 11.67 -0.36 11.34 1 11 C0.67 13.31 0.34 15.62 0 18 C-0.66 18 -1.32 18 -2 18 C-2.33 19.98 -2.66 21.96 -3 24 C-4 21 -4 21 -3 18 C-5.762219 17.51759361 -5.762219 17.51759361 -9 18 C-11.16497258 19.88619529 -12.8263513 21.56520073 -14.625 23.75 C-15.55402237 24.8286982 -16.48369798 25.90683418 -17.4140625 26.984375 C-18.26742188 27.97953125 -19.12078125 28.9746875 -20 30 C-21.31781813 31.34867006 -22.64458055 32.68912485 -24 34 C-24.99 33.67 -25.98 33.34 -27 33 C-24.06355016 27.66100029 -20.22584837 24.62021031 -15.33984375 21.02734375 C-12.87580262 18.89238992 -11.62972223 16.79035527 -10 14 C-9.34 14 -8.68 14 -8 14 C-7.34 12.02 -6.68 10.04 -6 8 C-5.34 8 -4.68 8 -4 8 C-3.71125 7.236875 -3.4225 6.47375 -3.125 5.6875 C-2 3 -2 3 0 0 Z " fill="#5E9B3B" transform="translate(444,238)"/>
<path d="M0 0 C0.98608749 0.00212242 0.98608749 0.00212242 1.99209595 0.00428772 C4.07029981 0.00983863 6.14839177 0.0223816 8.2265625 0.03515625 C9.64452968 0.04017761 11.06249857 0.0447394 12.48046875 0.04882812 C15.93753572 0.05979188 19.39453817 0.07702204 22.8515625 0.09765625 C22.5215625 0.75765625 22.1915625 1.41765625 21.8515625 2.09765625 C20.45357422 2.06285156 20.45357422 2.06285156 19.02734375 2.02734375 C5.01013277 1.82892014 -8.78635831 3.64362985 -22.1484375 8.09765625 C-23.1384375 8.09765625 -24.1284375 8.09765625 -25.1484375 8.09765625 C-26.1384375 8.42765625 -27.1284375 8.75765625 -28.1484375 9.09765625 C-30.3359375 8.16015625 -30.3359375 8.16015625 -32.1484375 7.09765625 C-31.1584375 7.09765625 -30.1684375 7.09765625 -29.1484375 7.09765625 C-29.1484375 6.43765625 -29.1484375 5.77765625 -29.1484375 5.09765625 C-26.60749895 4.44884177 -24.06575477 3.80352726 -21.5234375 3.16015625 C-20.81058594 2.97775391 -20.09773438 2.79535156 -19.36328125 2.60742188 C-18.66074219 2.43017578 -17.95820313 2.25292969 -17.234375 2.0703125 C-16.2760376 1.82680054 -16.2760376 1.82680054 -15.29833984 1.57836914 C-10.13765433 0.42445252 -5.29151865 -0.02261333 0 0 Z " fill="#58A070" transform="translate(300.1484375,28.90234375)"/>
<path d="M0 0 C1.65 0 3.3 0 5 0 C5.33 0.99 5.66 1.98 6 3 C7.65948148 4.01187895 9.32580562 5.0126546 11 6 C11 6.66 11 7.32 11 8 C11.78375 8.28875 12.5675 8.5775 13.375 8.875 C16 10 16 10 18 12 C18 12.99 18 13.98 18 15 C18.928125 15.4640625 18.928125 15.4640625 19.875 15.9375 C24.1179124 18.0589562 24.93552223 19.61298474 27 24 C27.391875 24.78375 27.78375 25.5675 28.1875 26.375 C28.455625 26.91125 28.72375 27.4475 29 28 C29.99 28 30.98 28 32 28 C32 29.32 32 30.64 32 32 C33.32 32 34.64 32 36 32 C36.70074844 35.153368 37 37.72724974 37 41 C37.66 41 38.32 41 39 41 C39.33 41.99 39.66 42.98 40 44 C39.34 44 38.68 44 38 44 C38 43.34 38 42.68 38 42 C37.34 42 36.68 42 36 42 C35.75765625 41.46890625 35.5153125 40.9378125 35.265625 40.390625 C33.28627701 36.21876847 31.46751968 33.13195326 28 30 C25 26.35714286 25 26.35714286 25 24 C24.34 24 23.68 24 23 24 C20 20.53846154 20 20.53846154 20 18 C19.34 18 18.68 18 18 18 C18 17.34 18 16.68 18 16 C17.4225 15.773125 16.845 15.54625 16.25 15.3125 C14 14 14 14 12.125 11.625 C9.74329396 8.68289253 7.13993578 7.06950312 4 5 C4 4.34 4 3.68 4 3 C2.68 2.34 1.36 1.68 0 1 C0 0.67 0 0.34 0 0 Z " fill="#5B9636" transform="translate(372,64)"/>
<path d="M0 0 C0.33 0.66 0.66 1.32 1 2 C0.04060332 3.69036558 -0.96642853 5.35394174 -2 7 C-2.309375 7.825 -2.61875 8.65 -2.9375 9.5 C-4 12 -4 12 -5.8125 14.125 C-14.90891388 26.08028681 -18.17040309 42.73318201 -22 57 C-22.33 57 -22.66 57 -23 57 C-23.27826087 41.4173913 -23.27826087 41.4173913 -19 35 C-18.835 34.29875 -18.67 33.5975 -18.5 32.875 C-18.335 32.25625 -18.17 31.6375 -18 31 C-17.34 30.67 -16.68 30.34 -16 30 C-15.31527335 28.11235097 -15.31527335 28.11235097 -14.875 25.9375 C-14.70742187 25.20402344 -14.53984375 24.47054687 -14.3671875 23.71484375 C-14.24601563 23.14894531 -14.12484375 22.58304688 -14 22 C-13.34 22 -12.68 22 -12 22 C-11.87625 21.278125 -11.7525 20.55625 -11.625 19.8125 C-11.0095069 17.04278106 -10.11555626 14.6029646 -9 12 C-8.34 12 -7.68 12 -7 12 C-6.95875 11.319375 -6.9175 10.63875 -6.875 9.9375 C-5.62612319 5.74484213 -2.95973269 3.1407561 0 0 Z " fill="#4D953B" transform="translate(206,121)"/>
<path d="M0 0 C0.33 0 0.66 0 1 0 C4.30466067 21.48029436 -0.04336872 42.41235811 -6 63 C-6.33 63 -6.66 63 -7 63 C-6.4618629 57.30948637 -5.8599867 51.65134116 -5 46 C-4.34 46 -3.68 46 -3 46 C-3.17917969 45.43152344 -3.35835938 44.86304688 -3.54296875 44.27734375 C-5.17766208 38.34291158 -4.98383828 35.3938615 -2 30 C-1.34 30 -0.68 30 0 30 C0 20.1 0 10.2 0 0 Z " fill="#5F9D63" transform="translate(464,167)"/>
<path d="M0 0 C1.08075806 0.10610596 1.08075806 0.10610596 2.18334961 0.21435547 C9.661465 0.89971387 17.05548333 1.15285535 24.5625 1.125 C25.60857422 1.12886719 26.65464844 1.13273437 27.73242188 1.13671875 C34.54044072 1.12826683 41.23234491 0.73676394 48 0 C48 0.66 48 1.32 48 2 C38.81450786 4.07479318 29.66157959 4.37987586 20.27929688 4.65795898 C19.26931641 4.68962158 18.25933594 4.72128418 17.21875 4.75390625 C16.31060547 4.77783447 15.40246094 4.8017627 14.46679688 4.82641602 C12.18745199 4.98680935 10.18941203 5.36610518 8 6 C8 6.66 8 7.32 8 8 C5.36 7.67 2.72 7.34 0 7 C0.33 6.34 0.66 5.68 1 5 C2.65 5 4.3 5 6 5 C3.9927092 1.9890638 3.16115776 1.36983503 0 0 Z " fill="#A1B55A" transform="translate(288,288)"/>
<path d="M0 0 C1.8871875 0.0309375 1.8871875 0.0309375 3.8125 0.0625 C3.8125 0.3925 3.8125 0.7225 3.8125 1.0625 C2.75933594 1.28164062 1.70617187 1.50078125 0.62109375 1.7265625 C-14.57634307 5.01446097 -30.11738477 9.75327924 -42.33203125 19.83203125 C-43.25048828 20.44111328 -43.25048828 20.44111328 -44.1875 21.0625 C-45.1775 20.7325 -46.1675 20.4025 -47.1875 20.0625 C-46.548125 19.65 -45.90875 19.2375 -45.25 18.8125 C-42.97759069 16.88439513 -42.58553561 15.94825819 -42.1875 13.0625 C-42.8475 12.7325 -43.5075 12.4025 -44.1875 12.0625 C-43.094375 12.10375 -42.00125 12.145 -40.875 12.1875 C-37.09857771 12.38324666 -37.09857771 12.38324666 -34.1875 10.0625 C-31.86362053 9.66862212 -29.52956251 9.32763915 -27.1875 9.0625 C-27.1875 8.4025 -27.1875 7.7425 -27.1875 7.0625 C-26.383125 6.93875 -25.57875 6.815 -24.75 6.6875 C-23.904375 6.48125 -23.05875 6.275 -22.1875 6.0625 C-21.8575 5.4025 -21.5275 4.7425 -21.1875 4.0625 C-18.86008011 3.69011282 -16.52514285 3.36413134 -14.1875 3.0625 C-2.54657336 -0.0417471 -2.54657336 -0.0417471 0 0 Z " fill="#79AB55" transform="translate(292.1875,68.9375)"/>
<path d="M0 0 C2 2 2 2 2.125 4.625 C2.08375 5.40875 2.0425 6.1925 2 7 C1.34 7 0.68 7 0 7 C0.061875 8.423125 0.061875 8.423125 0.125 9.875 C0.09414877 17.47982842 -1.25247842 23.98647267 -6 30 C-6.33 29.01 -6.66 28.02 -7 27 C-7.66 27 -8.32 27 -9 27 C-8.68933594 26.43667969 -8.37867188 25.87335938 -8.05859375 25.29296875 C-6.96263281 22.91906074 -6.49727559 20.88388705 -6.0625 18.3125 C-4.85340167 11.86714906 -3.03118985 5.82720117 0 0 Z " fill="#439342" transform="translate(459,206)"/>
<path d="M0 0 C2.475 0.495 2.475 0.495 5 1 C6.0024305 6.34629602 5.84888195 10.62374766 5 16 C4.34 16 3.68 16 3 16 C3.09539062 16.65226562 3.19078125 17.30453125 3.2890625 17.9765625 C3.95354181 23.21513193 4.21793267 27.04226816 2 32 C1.67 32 1.34 32 1 32 C0.67 21.44 0.34 10.88 0 0 Z " fill="#729F39" transform="translate(425,152)"/>
<path d="M0 0 C5.39795989 1.15058556 10.70987333 2.42421759 16 4 C16 4.66 16 5.32 16 6 C18.475 6.495 18.475 6.495 21 7 C21.33 7.99 21.66 8.98 22 10 C15.72062103 10.38445177 11.65654273 9.7194917 6 7 C4.33480481 6.65939189 2.66842534 6.32441604 1 6 C0.01 5.34 -0.98 4.68 -2 4 C-0.68 4 0.64 4 2 4 C2 3.01 2 2.02 2 1 C1.34 0.67 0.68 0.34 0 0 Z " fill="#91AB36" transform="translate(272,283)"/>
<path d="M0 0 C0.70511719 0.72832031 1.41023437 1.45664062 2.13671875 2.20703125 C5.79463598 5.77512241 9.75574115 8.85689034 13.76953125 12.01171875 C14.50558594 12.66785156 15.24164063 13.32398438 16 14 C16 14.66 16 15.32 16 16 C17.65 16.66 19.3 17.32 21 18 C19.3515625 18.71484375 19.3515625 18.71484375 17 19 C14.3359375 17.62890625 14.3359375 17.62890625 11.375 15.5625 C9.80105469 14.46615234 9.80105469 14.46615234 8.1953125 13.34765625 C3.68369086 10.0328829 -0.6964142 6.57997403 -5 3 C-4.360625 2.87625 -3.72125 2.7525 -3.0625 2.625 C-2.0415625 2.315625 -2.0415625 2.315625 -1 2 C-0.67 1.34 -0.34 0.68 0 0 Z " fill="#5F994A" transform="translate(219,291)"/>
<path d="M0 0 C0.66 0 1.32 0 2 0 C2.86646667 1.43011973 3.71781829 2.86940619 4.5625 4.3125 C5.03816406 5.11300781 5.51382812 5.91351563 6.00390625 6.73828125 C7 9 7 9 6 12 C4.68 12 3.36 12 2 12 C2 12.99 2 13.98 2 15 C-1.59905908 14.44449305 -2.99909799 13.25112752 -5.25 10.4375 C-5.77078125 9.79683594 -6.2915625 9.15617187 -6.828125 8.49609375 C-7.21484375 8.00238281 -7.6015625 7.50867188 -8 7 C-7.38640625 6.85691406 -6.7728125 6.71382813 -6.140625 6.56640625 C-3.89792233 5.9729904 -2.03970153 5.09269725 0 4 C0 2.68 0 1.36 0 0 Z " fill="#ACC533" transform="translate(391,85)"/>
<path d="M0 0 C2.17903567 3.2685535 3.21710489 6.48404841 4.375 10.1875 C5.76279187 14.51844825 7.19200428 18.71275726 9.3125 22.75 C11 26 11 26 11 29 C10.34 29 9.68 29 9 29 C9 28.34 9 27.68 9 27 C8.34 27 7.68 27 7 27 C6.67 28.32 6.34 29.64 6 31 C5.34 31 4.68 31 4 31 C3.46608101 26.79538793 2.97339169 22.74503271 3.125 18.5 C2.98638047 14.61865305 1.98570519 11.76919875 0.66796875 8.15625 C-0.1904919 5.38507878 -0.22140044 2.87820572 0 0 Z " fill="#3B903E" transform="translate(187,237)"/>
<path d="M0 0 C0.66 0.66 1.32 1.32 2 2 C2.66 1.34 3.32 0.68 4 0 C6.44989101 3.74235319 6.23086143 7.44225419 6.125 11.75 C6.11597656 12.44738281 6.10695312 13.14476562 6.09765625 13.86328125 C6.07419888 15.57566958 6.03833104 17.28788004 6 19 C3.33868932 16.46379367 1.17796621 14.00496983 -0.75 10.875 C-1.17796875 10.19179688 -1.6059375 9.50859375 -2.046875 8.8046875 C-3 7 -3 7 -3 5 C-2.34 5 -1.68 5 -1 5 C-0.67 3.35 -0.34 1.7 0 0 Z " fill="#439451" transform="translate(185,248)"/>
<path d="M0 0 C2.81347657 2.45765453 4.19314594 5.06278989 5.75 8.4375 C6.19859375 9.38496094 6.6471875 10.33242187 7.109375 11.30859375 C8.06367957 14.19243518 8.06066813 15.22458506 7 18 C6.67 18.99 6.34 19.98 6 21 C5.34 21 4.68 21 4 21 C4 19.68 4 18.36 4 17 C3.01 16.67 2.02 16.34 1 16 C1 14.35 1 12.7 1 11 C0.34 11 -0.32 11 -1 11 C-2.0257259 6.58937864 -2.03684712 4.07369424 0 0 Z " fill="#A6C53C" transform="translate(411,112)"/>
<path d="M0 0 C0.66 0.33 1.32 0.66 2 1 C1.57847656 1.55429687 1.15695312 2.10859375 0.72265625 2.6796875 C0.17480469 3.40414063 -0.37304688 4.12859375 -0.9375 4.875 C-1.48277344 5.59429687 -2.02804687 6.31359375 -2.58984375 7.0546875 C-4.03964624 8.94357079 -4.03964624 8.94357079 -5 11 C-5.66 11 -6.32 11 -7 11 C-6.67 11.99 -6.34 12.98 -6 14 C-11.3877551 16.20408163 -11.3877551 16.20408163 -14.25 15.25 C-16 14 -16 14 -18 12 C-17.52578613 11.70754395 -17.05157227 11.41508789 -16.56298828 11.11376953 C-14.4152283 9.78701067 -12.27009676 8.45606004 -10.125 7.125 C-9.00544922 6.43470703 -9.00544922 6.43470703 -7.86328125 5.73046875 C-7.14785156 5.28574219 -6.43242187 4.84101563 -5.6953125 4.3828125 C-5.03547363 3.97434082 -4.37563477 3.56586914 -3.69580078 3.14501953 C-1.85045821 1.97734934 -1.85045821 1.97734934 0 0 Z " fill="#95AC35" transform="translate(381,266)"/>
<path d="M0 0 C0.66 0 1.32 0 2 0 C2.26218749 3.14624993 2.24754367 4.61837017 0.5 7.3125 C-0.2425 8.1478125 -0.2425 8.1478125 -1 9 C-0.01 9.33 0.98 9.66 2 10 C3.32 8.68 4.64 7.36 6 6 C5.60446947 7.6510403 5.18286103 9.2958515 4.75 10.9375 C4.40195312 12.31228516 4.40195312 12.31228516 4.046875 13.71484375 C3 16 3 16 1.0625 16.84375 C-1.45046434 17.03412609 -3.56440383 16.60889904 -6 16 C-5.50627891 11.65525445 -4.65725482 9.40128617 -2 6 C-1.27648573 4.01985568 -0.59734611 2.02178685 0 0 Z " fill="#51963E" transform="translate(451,224)"/>
<path d="M0 0 C4.23811258 1.43325262 7.19174028 3.52813725 10.625 6.375 C11.56601562 7.14585938 12.50703125 7.91671875 13.4765625 8.7109375 C15.66473077 10.69587033 17.34552063 12.56824845 19 15 C18.01 15.33 17.02 15.66 16 16 C16 15.34 16 14.68 16 14 C14.35 14 12.7 14 11 14 C10.67 13.01 10.34 12.02 10 11 C10.33 10.34 10.66 9.68 11 9 C7.56484998 8.37542727 4.50935186 8 1 8 C0.67 8 0.34 8 0 8 C0 5.36 0 2.72 0 0 Z " fill="#5C9858" transform="translate(400,56)"/>
<path d="M0 0 C0.66 0 1.32 0 2 0 C2.33 2.31 2.66 4.62 3 7 C2.01 7.495 2.01 7.495 1 8 C1.57344937 10.86724686 1.8614515 11.8614515 4 14 C2.35 14.66 0.7 15.32 -1 16 C-1.06058594 16.60328125 -1.12117187 17.2065625 -1.18359375 17.828125 C-1.26738281 18.62734375 -1.35117188 19.4265625 -1.4375 20.25 C-1.51871094 21.03890625 -1.59992188 21.8278125 -1.68359375 22.640625 C-2.20033683 26.49386973 -2.80651899 28.70977849 -5 32 C-5.40600406 25.74452996 -4.78237977 19.88121405 -3.625 13.75 C-3.49891357 13.07710937 -3.37282715 12.40421875 -3.24291992 11.7109375 C-2.44630725 7.68762108 -1.37893632 3.86102169 0 0 Z " fill="#95BD40" transform="translate(188,162)"/>
<path d="M0 0 C3.34302923 5.01454385 2.30122871 10.81609182 1.5 16.625 C1.335 17.40875 1.17 18.1925 1 19 C1.99 19.33 2.98 19.66 4 20 C3.67 23.96 3.34 27.92 3 32 C2.01 31.67 1.02 31.34 0 31 C-2.19396276 20.85292225 -0.8370946 10.23946075 0 0 Z " fill="#49945A" transform="translate(164,173)"/>
<path d="M0 0 C0.45375 0.61875 0.9075 1.2375 1.375 1.875 C2.97108919 4.05919833 2.97108919 4.05919833 5 6 C5.33 6.99 5.66 7.98 6 9 C6.50273437 9.5878125 7.00546875 10.175625 7.5234375 10.78125 C9.48761795 13.73271692 9.47166921 15.98146185 9.625 19.5 C9.80169205 23.16846346 10.08382193 26.45446536 11 30 C11.12205329 32.67540816 11.04467313 35.31961238 11 38 C10.67 38 10.34 38 10 38 C9.80664062 37.03578125 9.61328125 36.0715625 9.4140625 35.078125 C9.02347656 33.18320313 9.02347656 33.18320313 8.625 31.25 C8.36976563 29.99703125 8.11453125 28.7440625 7.8515625 27.453125 C7.14758921 24.59848103 6.32803303 22.56602992 5 20 C4.80521605 18.05216053 4.61059351 16.10430418 4.41796875 14.15625 C3.81625011 11.05205662 2.41689799 8.57572465 0.83984375 5.859375 C0 4 0 4 0 0 Z " fill="#659934" transform="translate(414,114)"/>
<path d="M0 0 C9.48389954 -0.14065105 16.81004473 3.16140807 25.18066406 7.13964844 C27.60081214 8.28411996 30.04834813 9.36248546 32.5 10.4375 C33.655 10.953125 34.81 11.46875 36 12 C32.38360801 13.205464 31.19018982 12.3844923 27.8515625 10.8359375 C25.30007762 9.68400129 22.66596567 8.84530619 20 8 C19.67 8.99 19.34 9.98 19 11 C18.34 11 17.68 11 17 11 C17 10.34 17 9.68 17 9 C15.68 8.67 14.36 8.34 13 8 C13.66 7.01 14.32 6.02 15 5 C14.01 5.66 13.02 6.32 12 7 C11.77570313 6.36578125 11.55140625 5.7315625 11.3203125 5.078125 C10.16214243 2.77983843 10.16214243 2.77983843 7.6171875 2.171875 C6.25980469 1.96304688 6.25980469 1.96304688 4.875 1.75 C3.96492188 1.60046875 3.05484375 1.4509375 2.1171875 1.296875 C1.06917969 1.14992187 1.06917969 1.14992187 0 1 C0 0.67 0 0.34 0 0 Z " fill="#8BB944" transform="translate(325,45)"/>
<path d="M0 0 C0.99 0 1.98 0 3 0 C3.6496875 1.2375 3.6496875 1.2375 4.3125 2.5 C5.1478125 3.7375 5.1478125 3.7375 6 5 C9.12635209 5.41746608 9.12635209 5.41746608 12 5 C11.79375 5.78375 11.5875 6.5675 11.375 7.375 C11.25125 8.24125 11.1275 9.1075 11 10 C13.46278801 12.46278801 15.70676982 12.99771255 19 14 C19.33 15.65 19.66 17.3 20 19 C13.67035644 16.82983649 9.60069699 12.71571441 5 8 C4.071875 7.13375 3.14375 6.2675 2.1875 5.375 C0 3 0 3 0 0 Z " fill="#ABC73E" transform="translate(213,283)"/>
<path d="M0 0 C5.25278515 -0.65659814 8.1524079 0.92650156 12.4609375 3.61328125 C12.96882813 4.07089844 13.47671875 4.52851562 14 5 C14 5.99 14 6.98 14 8 C4.58997722 8.18451025 4.58997722 8.18451025 0 7 C0 4.69 0 2.38 0 0 Z " fill="#408E44" transform="translate(384,48)"/>
<path d="M0 0 C0 0.66 0 1.32 0 2 C-0.99 2.495 -0.99 2.495 -2 3 C-2.65213292 5.02463255 -2.65213292 5.02463255 -3 7 C-7.73879768 8.14850697 -12.46291362 8.32901557 -17.3125 8.5625 C-18.14845703 8.60568359 -18.98441406 8.64886719 -19.84570312 8.69335938 C-21.89696935 8.79885307 -23.9484648 8.89987315 -26 9 C-21.73435994 6.64954527 -17.10385705 5.33424546 -12.48828125 3.85546875 C-9.80984338 2.98404086 -7.23467721 2.11894599 -4.71875 0.84375 C-3 0 -3 0 0 0 Z " fill="#A7B85D" transform="translate(363,279)"/>
<path d="M0 0 C1.36214947 2.72429893 0.65806194 4.03872128 0 7 C-0.12375 8.19625 -0.2475 9.3925 -0.375 10.625 C-1.02714525 14.14658435 -1.39267849 14.80984993 -4 17 C-4.4640625 18.0209375 -4.4640625 18.0209375 -4.9375 19.0625 C-6.25915036 21.4725683 -7.54901546 21.88591612 -10 23 C-8.00226249 14.5714503 -4.27114954 7.46573535 0 0 Z " fill="#5DA060" transform="translate(182,104)"/>
<path d="M0 0 C0.54269531 0.22816406 1.08539063 0.45632813 1.64453125 0.69140625 C2.35996094 0.97886719 3.07539063 1.26632812 3.8125 1.5625 C4.52019531 1.85253906 5.22789062 2.14257812 5.95703125 2.44140625 C8.1735067 3.25063024 8.1735067 3.25063024 11 2 C11 2.66 11 3.32 11 4 C11.556875 3.690625 12.11375 3.38125 12.6875 3.0625 C15.12540433 1.94238179 17.36224186 1.43962636 20 1 C20 2.98 20 4.96 20 7 C13.10091664 7.34817804 6.19407732 7.50037393 0 4 C-0.33 3.01 -0.66 2.02 -1 1 C-0.67 0.67 -0.34 0.34 0 0 Z " fill="#A2BE52" transform="translate(263,319)"/>
<path d="M0 0 C0.33 0 0.66 0 1 0 C1.06731323 1.07930786 1.06731323 1.07930786 1.13598633 2.18041992 C2.04568616 19.62577827 2.04568616 19.62577827 5.51171875 36.6796875 C6.03752588 39.17832296 5.8278078 40.61102446 5 43 C4.505 41.515 4.505 41.515 4 40 C3.34 40.66 2.68 41.32 2 42 C2 38.04 2 34.08 2 30 C1.34 30 0.68 30 0 30 C-0.7903481 19.84706673 -1.14727634 10.14898301 0 0 Z " fill="#A7C061" transform="translate(201,171)"/>
<path d="M0 0 C0 0.66 0 1.32 0 2 C0.66 2 1.32 2 2 2 C2 2.99 2 3.98 2 5 C0.35 5 -1.3 5 -3 5 C-3 5.66 -3 6.32 -3 7 C-9.5 11 -9.5 11 -14 11 C-12.65857231 6.52603378 -11.03698133 4.958302 -7 2.6875 C-6.113125 2.17574219 -5.22625 1.66398437 -4.3125 1.13671875 C-2 0 -2 0 0 0 Z " fill="#46974C" transform="translate(242,47)"/>
<path d="M0 0 C8.14823605 0.03605414 15.32408305 2.2254518 22 7 C23.34375 9.703125 23.34375 9.703125 24 12 C22.35 12 20.7 12 19 12 C19 11.34 19 10.68 19 10 C18.01 9.67 17.02 9.34 16 9 C15.67 7.68 15.34 6.36 15 5 C11.04 4.67 7.08 4.34 3 4 C2.67 3.01 2.34 2.02 2 1 C1.34 0.67 0.68 0.34 0 0 Z " fill="#549563" transform="translate(357,36)"/>
<path d="M0 0 C0.64257812 1.79736328 0.64257812 1.79736328 1 4 C-0.75113146 6.48876561 -2.47219476 8.63298998 -4.5 10.875 C-5.01820313 11.47441406 -5.53640625 12.07382812 -6.0703125 12.69140625 C-9.7385932 16.85662153 -13.70089237 20.49529269 -18 24 C-18 20 -18 20 -16 18 C-15.01 18 -14.02 18 -13 18 C-12.9175 17.236875 -12.835 16.47375 -12.75 15.6875 C-11.84504809 12.44475565 -10.71226652 11.83734184 -8 10 C-8 9.34 -8 8.68 -8 8 C-6.35 7.67 -4.7 7.34 -3 7 C-3 6.01 -3 5.02 -3 4 C-2.34 4 -1.68 4 -1 4 C-0.67 2.68 -0.34 1.36 0 0 Z " fill="#80AD6B" transform="translate(435,267)"/>
<path d="M0 0 C0.33 0.99 0.66 1.98 1 3 C0.01 3.33 -0.98 3.66 -2 4 C-2.69465482 6.01449897 -2.98886083 7.88118216 -3.1875 10 C-4.51769045 13.27431495 -6.99430132 14.32374496 -10 16 C-12.875 16.75 -12.875 16.75 -15 17 C-13.67879172 14.06769807 -12.25361803 12.01335101 -9.9609375 9.765625 C-9.38085938 9.19199219 -8.80078125 8.61835937 -8.203125 8.02734375 C-7.59984375 7.44082031 -6.9965625 6.85429688 -6.375 6.25 C-5.76398438 5.64800781 -5.15296875 5.04601562 -4.5234375 4.42578125 C-3.02011376 2.94594695 -1.51065144 1.47235324 0 0 Z " fill="#69A263" transform="translate(212,67)"/>
<path d="M0 0 C0.87527344 -0.00257812 1.75054687 -0.00515625 2.65234375 -0.0078125 C5.0625 0.125 5.0625 0.125 8.0625 1.125 C9.45689664 1.19165376 10.85419875 1.21038199 12.25 1.1875 C13.508125 1.166875 14.76625 1.14625 16.0625 1.125 C15.0725 1.455 14.0825 1.785 13.0625 2.125 C13.0625 2.785 13.0625 3.445 13.0625 4.125 C12.27746094 4.18558594 11.49242187 4.24617188 10.68359375 4.30859375 C5.10888852 4.75320214 -0.41390616 5.24624643 -5.9375 6.125 C-6.2675 5.465 -6.5975 4.805 -6.9375 4.125 C-5.6175 4.125 -4.2975 4.125 -2.9375 4.125 C-2.9375 3.465 -2.9375 2.805 -2.9375 2.125 C-4.2575 1.795 -5.5775 1.465 -6.9375 1.125 C-4.46371876 -0.11189062 -2.75834683 -0.00810087 0 0 Z " fill="#7BAC3F" transform="translate(286.9375,64.875)"/>
<path d="M0 0 C0.33 0.66 0.66 1.32 1 2 C0.0625 4.625 0.0625 4.625 -1 7 C-1.66 7 -2.32 7 -3 7 C-3.0825 7.5775 -3.165 8.155 -3.25 8.75 C-4.26464292 11.79392875 -5.44695292 13.05162197 -8 15 C-11.75 15.75 -11.75 15.75 -15 16 C-14.07038578 14.84775972 -13.1309875 13.70340824 -12.1875 12.5625 C-11.66542969 11.92441406 -11.14335937 11.28632813 -10.60546875 10.62890625 C-9 9 -9 9 -6 8 C-5.31513275 6.67592331 -4.65129797 5.34090759 -4 4 C-2.70529025 2.62913085 -1.37849103 1.28659163 0 0 Z " fill="#A1B55C" transform="translate(398,250)"/>
<path d="M0 0 C0.33 0 0.66 0 1 0 C1.04487549 0.76554199 1.08975098 1.53108398 1.13598633 2.31982422 C1.34926639 5.83907802 1.58075896 9.35691552 1.8125 12.875 C1.88275391 14.07898438 1.95300781 15.28296875 2.02539062 16.5234375 C2.46268176 22.96036299 3.20080902 28.76316786 5.3671875 34.85742188 C6.38241475 38.29478081 6.19768205 41.44172307 6 45 C-2.49935222 32.25097167 -0.43223582 14.52312363 0 0 Z " fill="#9AC442" transform="translate(183,195)"/>
<path d="M0 0 C0.66 0 1.32 0 2 0 C2.54433955 4.77412556 0.71985214 7.708535 -1.8125 11.5625 C-2.16892578 12.12646484 -2.52535156 12.69042969 -2.89257812 13.27148438 C-4.80858469 16.27732953 -6.81651927 19.18282771 -9 22 C-9 21.34 -9 20.68 -9 20 C-9.66 20 -10.32 20 -11 20 C-11 19.34 -11 18.68 -11 18 C-10.34 18 -9.68 18 -9 18 C-8.9071875 16.39125 -8.9071875 16.39125 -8.8125 14.75 C-7.82630309 10.19832197 -6.58760031 9.73340976 -3 7 C-1.73303561 4.71449562 -0.90127358 2.46664349 0 0 Z " fill="#90B656" transform="translate(220,112)"/>
<path d="M0 0 C4.03962299 0.74807833 6.06491826 2.39614346 8.87109375 5.30078125 C10 7 10 7 9.875 10.375 C9.58625 11.24125 9.2975 12.1075 9 13 C7.68 13.33 6.36 13.66 5 14 C4.67 11.03 4.34 8.06 4 5 C2.68 5 1.36 5 0 5 C0 3.35 0 1.7 0 0 Z " fill="#639C57" transform="translate(420,74)"/>
<path d="M0 0 C1.32 0.66 2.64 1.32 4 2 C4.33 1.34 4.66 0.68 5 0 C6.9375 0.3125 6.9375 0.3125 9 1 C9.495 2.485 9.495 2.485 10 4 C-2.54 4 -15.08 4 -28 4 C-28 3.34 -28 2.68 -28 2 C-18.76 2 -9.52 2 0 2 C0 1.34 0 0.68 0 0 Z " fill="#9AB75C" transform="translate(328,65)"/>
<path d="M0 0 C0.66 0.33 1.32 0.66 2 1 C-2.37903997 8.36960385 -7.79156005 14.12284045 -14 20 C-14.99 19.67 -15.98 19.34 -17 19 C-14.06355016 13.66100029 -10.22584837 10.62021031 -5.33984375 7.02734375 C-2.87421129 4.89101111 -1.5161006 2.86816409 0 0 Z " fill="#699F3B" transform="translate(434,252)"/>
<path d="M0 0 C1.4540625 0.0309375 1.4540625 0.0309375 2.9375 0.0625 C-0.57528074 2.40435382 -4.11430348 3.41460651 -8.125 4.5625 C-9.26811646 4.89241943 -9.26811646 4.89241943 -10.43432617 5.22900391 C-25.96427098 9.64352383 -25.96427098 9.64352383 -31.0625 8.0625 C-28.06621461 5.06621461 -24.47756529 5.3375714 -20.4375 4.9375 C-19.63570313 4.85113281 -18.83390625 4.76476562 -18.0078125 4.67578125 C-16.02686365 4.46353673 -14.04477282 4.26200069 -12.0625 4.0625 C-12.0625 3.4025 -12.0625 2.7425 -12.0625 2.0625 C-10.01171875 1.83463542 -7.9609375 1.60677083 -5.91015625 1.37890625 C-3.00452994 0.88132542 -3.42063662 0.06980891 0 0 Z " fill="#A2BD6C" transform="translate(365.0625,320.9375)"/>
<path d="M0 0 C0.33 0 0.66 0 1 0 C1 8.25 1 16.5 1 25 C-0.98 25.99 -0.98 25.99 -3 27 C-2.835 26.071875 -2.67 25.14375 -2.5 24.1875 C-1.77818659 19.16574097 -1.70227738 14.06128457 -2 9 C-2.33 8.67 -2.66 8.34 -3 8 C-1.125 1.125 -1.125 1.125 0 0 Z " fill="#388F44" transform="translate(180,183)"/>
<path d="M0 0 C1.32 0 2.64 0 4 0 C4.66 1.65 5.32 3.3 6 5 C5.67 5.33 5.34 5.66 5 6 C-2.82411814 5.46955131 -10.36429561 3.72699431 -18 2 C-18 1.67 -18 1.34 -18 1 C-6.47835991 0.81548975 -6.47835991 0.81548975 -1 2 C-0.67 1.34 -0.34 0.68 0 0 Z " fill="#328C3F" transform="translate(334,40)"/>
<path d="M0 0 C1.98 0 3.96 0 6 0 C6 1.65 6 3.3 6 5 C6.66 5 7.32 5 8 5 C8 5.99 8 6.98 8 8 C7.34 8 6.68 8 6 8 C5.34 9.32 4.68 10.64 4 12 C3.34 12 2.68 12 2 12 C0.70756464 7.8803623 -0.26252625 4.33168317 0 0 Z " fill="#318D43" transform="translate(169,216)"/>
<path d="M0 0 C1.27875 0.103125 2.5575 0.20625 3.875 0.3125 C4.95394531 0.39951172 4.95394531 0.39951172 6.0546875 0.48828125 C8 1 8 1 10 4 C10 3.34 10 2.68 10 2 C11.32 2.33 12.64 2.66 14 3 C13.814375 3.78375 13.62875 4.5675 13.4375 5.375 C12.74037734 7.97089775 12.74037734 7.97089775 14 10 C12.35 9.67 10.7 9.34 9 9 C8.67 8.01 8.34 7.02 8 6 C7.236875 5.896875 6.47375 5.79375 5.6875 5.6875 C2.81583516 4.95288806 1.76957906 4.3283935 0 2 C0 1.34 0 0.68 0 0 Z " fill="#A3C33C" transform="translate(234,303)"/>
<path d="M0 0 C0.33 0 0.66 0 1 0 C2.22869216 8.21858531 1.9054935 16.29254559 1.5625 24.5625 C1.50915672 25.96677388 1.45641764 27.37107084 1.40429688 28.77539062 C1.2754541 32.18386758 1.14052672 35.59198813 1 39 C0.34 39 -0.32 39 -1 39 C-1.33 39.66 -1.66 40.32 -2 41 C-2.12550633 34.59917722 -2.12550633 34.59917722 -1.51586914 31.6887207 C-0.90248325 28.49174066 -0.78393093 25.42176013 -0.68359375 22.16796875 C-0.64169922 20.87568359 -0.59980469 19.58339844 -0.55664062 18.25195312 C-0.51683648 16.89713808 -0.47712409 15.54232033 -0.4375 14.1875 C-0.39426277 12.81313895 -0.35064688 11.43878976 -0.30664062 10.06445312 C-0.2007021 6.70973331 -0.09862811 3.3549414 0 0 Z " fill="#4B8F44" transform="translate(463,158)"/>
<path d="M0 0 C0.99 0.33 1.98 0.66 3 1 C3.33 1.99 3.66 2.98 4 4 C3.01 5.485 3.01 5.485 2 7 C2.66 7 3.32 7 4 7 C3.5359375 8.3303125 3.5359375 8.3303125 3.0625 9.6875 C2.1709329 12.46709155 1.50622993 15.13136375 1 18 C0.01 17.67 -0.98 17.34 -2 17 C-2.25287193 10.93107371 -1.69832609 5.83799592 0 0 Z " fill="#358F44" transform="translate(172,128)"/>
<path d="M0 0 C2.64837091 3.97255637 4.57760704 8.19407669 6.625 12.5 C7.04523438 13.36753906 7.46546875 14.23507813 7.8984375 15.12890625 C8.29546875 15.96292969 8.6925 16.79695313 9.1015625 17.65625 C9.46588379 18.41744141 9.83020508 19.17863281 10.20556641 19.96289062 C11 22 11 22 11 25 C8 24 8 24 7.05078125 22.15234375 C6.80714844 21.42144531 6.56351563 20.69054687 6.3125 19.9375 C6.06113281 19.20402344 5.80976563 18.47054687 5.55078125 17.71484375 C5.36902344 17.14894531 5.18726563 16.58304688 5 16 C4.01 16 3.02 16 2 16 C2.33 14.35 2.66 12.7 3 11 C2.34 11 1.68 11 1 11 C0.67 7.37 0.34 3.74 0 0 Z " fill="#B2C763" transform="translate(207,214)"/>
<path d="M0 0 C0.66 0 1.32 0 2 0 C2 0.66 2 1.32 2 2 C2.928125 1.690625 2.928125 1.690625 3.875 1.375 C4.57625 1.25125 5.2775 1.1275 6 1 C6.66 1.66 7.32 2.32 8 3 C4.7 5.64 1.4 8.28 -2 11 C-2.66 10.34 -3.32 9.68 -4 9 C-3.64059802 5.5257809 -1.96693291 2.83238339 0 0 Z " fill="#7AAD59" transform="translate(409,289)"/>
<path d="M0 0 C2.87579207 4.31368811 4.70935192 8.7507958 4 14 C2.48046875 15.64453125 2.48046875 15.64453125 1 17 C0.1605118 14.89828133 -0.67139656 12.79353375 -1.5 10.6875 C-1.9640625 9.51574219 -2.428125 8.34398437 -2.90625 7.13671875 C-4 4 -4 4 -4 1 C-3.34 1.33 -2.68 1.66 -2 2 C-2 3.32 -2 4.64 -2 6 C-1.34 6 -0.68 6 0 6 C0 4.02 0 2.04 0 0 Z " fill="#BDCF52" transform="translate(417,127)"/>
<path d="M0 0 C0.33 0.99 0.66 1.98 1 3 C0.00390625 4.82421875 0.00390625 4.82421875 -1.4375 6.6875 C-1.91058594 7.31011719 -2.38367188 7.93273437 -2.87109375 8.57421875 C-3.24363281 9.04472656 -3.61617187 9.51523438 -4 10 C-4.33 9.01 -4.66 8.02 -5 7 C-5.66 7 -6.32 7 -7 7 C-7.103125 7.639375 -7.20625 8.27875 -7.3125 8.9375 C-7.539375 9.618125 -7.76625 10.29875 -8 11 C-8.99 11.33 -9.98 11.66 -11 12 C-10.39281709 8.943846 -9.43597932 6.84238324 -7.625 4.3125 C-7.20476562 3.71050781 -6.78453125 3.10851562 -6.3515625 2.48828125 C-4.48504888 0.43295845 -2.73844435 0 0 0 Z " fill="#83B04E" transform="translate(227,105)"/>
<path d="M0 0 C1.41655793 -0.0272415 2.83327045 -0.04650467 4.25 -0.0625 C5.43335938 -0.07990234 5.43335938 -0.07990234 6.640625 -0.09765625 C8.90691002 -0.00385306 10.8288895 0.36758937 13 1 C13 1.66 13 2.32 13 3 C13.66 3 14.32 3 15 3 C14.67 4.32 14.34 5.64 14 7 C13.01 6.67 12.02 6.34 11 6 C11 5.34 11 4.68 11 4 C10.01 4.66 9.02 5.32 8 6 C5.3125 5.625 5.3125 5.625 3 5 C3 3.68 3 2.36 3 1 C2.01 0.67 1.02 0.34 0 0 Z " fill="#3F8F4E" transform="translate(341,32)"/>
<path d="M0 0 C2.91517292 1.07401108 4.77810176 1.77810176 7 4 C4.21526125 5.53378536 1.42121662 7.0497558 -1.375 8.5625 C-2.1690625 9.00013672 -2.963125 9.43777344 -3.78125 9.88867188 C-4.54179687 10.29794922 -5.30234375 10.70722656 -6.0859375 11.12890625 C-7.1385376 11.70233765 -7.1385376 11.70233765 -8.21240234 12.28735352 C-8.80230957 12.52252686 -9.3922168 12.7577002 -10 13 C-10.66 12.67 -11.32 12.34 -12 12 C-11.01 11.67 -10.02 11.34 -9 11 C-9 10.34 -9 9.68 -9 9 C-7.02 8.67 -5.04 8.34 -3 8 C-2.87625 7.4225 -2.7525 6.845 -2.625 6.25 C-1.99351176 3.97664233 -1.11141809 2.0746471 0 0 Z " fill="#86B055" transform="translate(385,306)"/>
<path d="M0 0 C0.99 0.66 1.98 1.32 3 2 C3.1875 4.625 3.1875 4.625 3 7 C3.99 7 4.98 7 6 7 C5.67 8.65 5.34 10.3 5 12 C3.68 12 2.36 12 1 12 C1 11.01 1 10.02 1 9 C0.01 9 -0.98 9 -2 9 C-2.25 3.375 -2.25 3.375 0 0 Z " fill="#A2C137" transform="translate(216,237)"/>
<path d="M0 0 C0.33 0 0.66 0 1 0 C2.07722661 7.53745175 1.83644043 14.56826489 1.0625 22.125 C0.96259766 23.176875 0.86269531 24.22875 0.75976562 25.3125 C0.51507175 27.87595964 0.26168628 30.43822902 0 33 C-0.33 33 -0.66 33 -1 33 C-2.07722661 25.46254825 -1.83644043 18.43173511 -1.0625 10.875 C-0.96259766 9.823125 -0.86269531 8.77125 -0.75976562 7.6875 C-0.51507175 5.12404036 -0.26168628 2.56177098 0 0 Z " fill="#60A171" transform="translate(164,154)"/>
<path d="M0 0 C0.99 0.33 1.98 0.66 3 1 C2.67 4.63 2.34 8.26 2 12 C2.66 12 3.32 12 4 12 C4 13.65 4 15.3 4 17 C1.57294661 13.86350023 -0.57172308 10.60330681 -2.6875 7.25 C-3.31011719 6.26515625 -3.93273437 5.2803125 -4.57421875 4.265625 C-5.04472656 3.51796875 -5.51523437 2.7703125 -6 2 C-5.34 1.67 -4.68 1.34 -4 1 C-4 1.66 -4 2.32 -4 3 C-3.01 2.67 -2.02 2.34 -1 2 C-0.67 1.34 -0.34 0.68 0 0 Z " fill="#BBCE4D" transform="translate(408,111)"/>
<path d="M0 0 C0.66 0 1.32 0 2 0 C2.4125 0.45375 2.825 0.9075 3.25 1.375 C5.58139465 3.53986646 7.97828036 4.12705877 11 5 C11 5.66 11 6.32 11 7 C11.61488281 7.18175781 12.22976562 7.36351562 12.86328125 7.55078125 C13.67152344 7.80214844 14.47976562 8.05351562 15.3125 8.3125 C16.11300781 8.55613281 16.91351563 8.79976563 17.73828125 9.05078125 C20.09964573 10.04182023 21.33879993 11.08074943 23 13 C13.8429067 10.93157422 6.1086582 6.55166014 -2 2 C-1.34 1.34 -0.68 0.68 0 0 Z " fill="#81AA57" transform="translate(240,309)"/>
<path d="M0 0 C1.02480469 0.00322266 2.04960937 0.00644531 3.10546875 0.00976562 C4.16894531 0.01814453 5.23242188 0.02652344 6.328125 0.03515625 C7.40707031 0.03966797 8.48601562 0.04417969 9.59765625 0.04882812 C12.25786883 0.06059898 14.91796865 0.07704226 17.578125 0.09765625 C17.248125 0.75765625 16.918125 1.41765625 16.578125 2.09765625 C15.57652344 2.08605469 14.57492187 2.07445313 13.54296875 2.0625 C12.20052272 2.05311227 10.85807464 2.04401313 9.515625 2.03515625 C8.20464844 2.02355469 6.89367187 2.01195313 5.54296875 2 C1.58491427 2.01788505 1.58491427 2.01788505 -2.265625 2.66015625 C-5.55799 3.11652368 -6.72505163 2.93149614 -9.421875 1.09765625 C-6.21405414 0.14389058 -3.34000104 -0.01855556 0 0 Z " fill="#31844B" transform="translate(305.421875,28.90234375)"/>
<path d="M0 0 C1.65 0 3.3 0 5 0 C5.33 0.99 5.66 1.98 6 3 C7.65948148 4.01187895 9.32580562 5.0126546 11 6 C11 6.66 11 7.32 11 8 C11.78375 8.28875 12.5675 8.5775 13.375 8.875 C16 10 16 10 18 12 C17.67 12.99 17.34 13.98 17 15 C13.00180966 12.82955381 10.16411703 10.24738327 7 7 C6.01 6.34 5.02 5.68 4 5 C4 4.34 4 3.68 4 3 C2.68 2.34 1.36 1.68 0 1 C0 0.67 0 0.34 0 0 Z " fill="#4E9236" transform="translate(372,64)"/>
<path d="M0 0 C0 0.66 0 1.32 0 2 C-6.48661131 6.19627694 -12.35063869 8.0420426 -20 9 C-17.32366437 5.72345675 -13.80671988 4.39213274 -10 2.8125 C-9.05640625 2.40354492 -9.05640625 2.40354492 -8.09375 1.98632812 C-5.2279328 0.77503463 -3.14296477 0 0 0 Z " fill="#559B6D" transform="translate(262,38)"/>
<path d="M0 0 C1.98 0.495 1.98 0.495 4 1 C4.66 3.31 5.32 5.62 6 8 C5.01 8.495 5.01 8.495 4 9 C3.34786708 11.02463255 3.34786708 11.02463255 3 13 C2.34 12.67 1.68 12.34 1 12 C1.33 11.01 1.66 10.02 2 9 C1.34 8.67 0.68 8.34 0 8 C-1.13617383 5.00463263 -0.97110486 3.02121511 0 0 Z " fill="#338E42" transform="translate(181,240)"/>
<path d="M0 0 C4.77609498 1.64178265 8.79382904 4.26546702 13 7 C9.52648925 9.31567384 8.08600528 9.59587577 4 9 C1.74942483 6.20618254 0.65032557 3.51175807 0 0 Z " fill="#A0B951" transform="translate(248,270)"/>
<path d="M0 0 C0.33 0 0.66 0 1 0 C1.12375 1.11375 1.2475 2.2275 1.375 3.375 C1.6465813 7.03103677 1.6465813 7.03103677 4 9 C4.40047444 11.32275177 4.7397104 13.65739357 5 16 C4.67 15.34 4.34 14.68 4 14 C2.68 14 1.36 14 0 14 C0 13.01 0 12.02 0 11 C-0.66 11 -1.32 11 -2 11 C-2.25 3.375 -2.25 3.375 0 0 Z " fill="#9EBC3A" transform="translate(202,202)"/>
<path d="M0 0 C1.32 0.33 2.64 0.66 4 1 C2.02 1.99 2.02 1.99 0 3 C0 2.01 0 1.02 0 0 Z M-5 1 C-3.68 1 -2.36 1 -1 1 C-0.67 2.98 -0.34 4.96 0 7 C0.99 7.33 1.98 7.66 3 8 C2.01 8.99 1.02 9.98 0 11 C-3.35914922 8.76056718 -3.81681636 7.73157917 -5 4 C-5 3.01 -5 2.02 -5 1 Z " fill="#AFC935" transform="translate(213,272)"/>
<path d="M0 0 C1.32046249 3.96138746 0.20191126 6.8042008 -0.875 10.6875 C-2.36594341 16.13201403 -3.40705631 21.37965079 -4 27 C-4.33 27 -4.66 27 -5 27 C-5.37879332 18.30178303 -4.97693545 10.26167866 -2 2 C-1.34 1.34 -0.68 0.68 0 0 Z " fill="#A5C071" transform="translate(207,142)"/>
<path d="M0 0 C0.99 0.33 1.98 0.66 3 1 C2.67 1.99 2.34 2.98 2 4 C2.66 4.33 3.32 4.66 4 5 C3.07347299 6.17539996 2.13336613 7.34010577 1.1875 8.5 C0.66542969 9.1496875 0.14335937 9.799375 -0.39453125 10.46875 C-2 12 -2 12 -5 12 C-4.67 11.01 -4.34 10.02 -4 9 C-3.34 9 -2.68 9 -2 9 C-2.226875 8.2575 -2.45375 7.515 -2.6875 6.75 C-3 4 -3 4 -1.5625 1.6875 C-1.046875 1.130625 -0.53125 0.57375 0 0 Z " fill="#479443" transform="translate(197,84)"/>
<path d="M0 0 C0.33 0 0.66 0 1 0 C1.61187085 7.83534611 0.06459719 13.8036691 -3 21 C-3.66 21 -4.32 21 -5 21 C-4.42351925 13.64987044 -2.28953836 6.98575424 0 0 Z " fill="#6AA977" transform="translate(170,131)"/>
<path d="M0 0 C1.5 1.375 1.5 1.375 3 3 C3 3.66 3 4.32 3 5 C3.99 5.33 4.98 5.66 6 6 C6 7.32 6 8.64 6 10 C6.99 10.33 7.98 10.66 9 11 C9.33 11.99 9.66 12.98 10 14 C9.34 14 8.68 14 8 14 C8 13.34 8 12.68 8 12 C7.236875 11.896875 6.47375 11.79375 5.6875 11.6875 C1.6227758 10.64768683 1.6227758 10.64768683 0 8 C-0.24713438 5.28152187 -0.13479526 2.7408369 0 0 Z " fill="#3E9243" transform="translate(199,269)"/>
<path d="M0 0 C1.8871875 0.0309375 1.8871875 0.0309375 3.8125 0.0625 C3.8125 0.3925 3.8125 0.7225 3.8125 1.0625 C2.14574219 1.44341797 2.14574219 1.44341797 0.4453125 1.83203125 C-7.51330631 3.66760344 -15.41153255 5.54056461 -23.1875 8.0625 C-22.38671875 6.1015625 -22.38671875 6.1015625 -21.1875 4.0625 C-18 3.4375 -18 3.4375 -14.1875 3.0625 C-2.54657336 -0.0417471 -2.54657336 -0.0417471 0 0 Z " fill="#96BA72" transform="translate(292.1875,68.9375)"/>
<path d="M0 0 C3.67238943 1.30712166 5.90499375 2.61431212 8.6875 5.3125 C8.6875 5.9725 8.6875 6.6325 8.6875 7.3125 C7.2285574 6.83519162 5.77036504 6.35558958 4.3125 5.875 C3.50039063 5.60816406 2.68828125 5.34132813 1.8515625 5.06640625 C-0.3125 4.3125 -0.3125 4.3125 -2.3125 3.3125 C-2.3125 2.6525 -2.3125 1.9925 -2.3125 1.3125 C-3.3025 0.9825 -4.2925 0.6525 -5.3125 0.3125 C-3.3125 -0.6875 -3.3125 -0.6875 0 0 Z M9.6875 3.3125 C10.0175 3.9725 10.3475 4.6325 10.6875 5.3125 C10.0275 4.9825 9.3675 4.6525 8.6875 4.3125 C9.0175 3.9825 9.3475 3.6525 9.6875 3.3125 Z " fill="#A6C63E" transform="translate(253.3125,312.6875)"/>
<path d="M0 0 C2.13911742 2.05129442 3.95737463 4.15695031 5.6875 6.5625 C6.12449219 7.16191406 6.56148437 7.76132812 7.01171875 8.37890625 C8 10 8 10 8 12 C8.66 12 9.32 12 10 12 C11.625 14 11.625 14 13 16 C12.67 16.66 12.34 17.32 12 18 C9 17 9 17 7.9375 15 C7.628125 14.34 7.31875 13.68 7 13 C6.34 12.67 5.68 12.34 5 12 C4.87625 11.401875 4.7525 10.80375 4.625 10.1875 C4.14066415 7.80355578 4.14066415 7.80355578 1.9375 6 C0 4 0 4 0 0 Z " fill="#5D9D37" transform="translate(200,267)"/>
<path d="M0 0 C0.99 0.33 1.98 0.66 3 1 C3 10.9 3 20.8 3 31 C2.67 31 2.34 31 2 31 C1.97494385 30.38068604 1.9498877 29.76137207 1.92407227 29.12329102 C1.80677342 26.26955112 1.68466414 23.41603559 1.5625 20.5625 C1.52318359 19.58861328 1.48386719 18.61472656 1.44335938 17.61132812 C1.18631833 11.69938401 0.72280379 5.87354003 0 0 Z " fill="#C4D47C" transform="translate(422,157)"/>
<path d="M0 0 C0 2.64054495 -0.35107784 4.48542662 -1 7 C-1 7.66 -1 8.32 -1 9 C-3 10.625 -3 10.625 -5 12 C-5.66 11.67 -6.32 11.34 -7 11 C-7 11.99 -7 12.98 -7 14 C-7.99 14.33 -8.98 14.66 -10 15 C-8.59601721 10.89889238 -6.62912962 8.01910841 -3.875 4.6875 C-3.15054688 3.80449219 -2.42609375 2.92148438 -1.6796875 2.01171875 C-1.12539062 1.34785156 -0.57109375 0.68398437 0 0 Z " fill="#7FB480" transform="translate(196,84)"/>
<path d="M0 0 C5.94 0 11.88 0 18 0 C17.01 0.495 17.01 0.495 16 1 C15.67 1.66 15.34 2.32 15 3 C14.67 2.67 14.34 2.34 14 2 C12.00041636 1.95919217 9.99954746 1.95745644 8 2 C7.67 2.99 7.34 3.98 7 5 C6.67 4.01 6.34 3.02 6 2 C3.03 1.505 3.03 1.505 0 1 C0 0.67 0 0.34 0 0 Z M0 2 C4 3 4 3 4 3 Z " fill="#92AA33" transform="translate(296,292)"/>
<path d="M0 0 C0.66 0.33 1.32 0.66 2 1 C-5.11389522 9.81548975 -5.11389522 9.81548975 -10 11 C-10.33 10.01 -10.66 9.02 -11 8 C-7.37 5.36 -3.74 2.72 0 0 Z " fill="#ABBC68" transform="translate(381,266)"/>
<path d="M0 0 C1.88801974 2.83202961 2.96101651 5.26025619 4.125 8.4375 C4.47820312 9.38496094 4.83140625 10.33242187 5.1953125 11.30859375 C6 14 6 14 6 18 C5.34 18 4.68 18 4 18 C1.72942897 11.95942424 0.51085812 6.43681228 0 0 Z " fill="#4E9634" transform="translate(187,237)"/>
<path d="M0 0 C0.33 0 0.66 0 1 0 C1.35621515 6.4118727 0.53060222 12.04495899 -2 18 C-2.66 18.33 -3.32 18.66 -4 19 C-3.37968409 12.42465139 -1.85102717 6.33307408 0 0 Z " fill="#70A441" transform="translate(460,192)"/>
<path d="M0 0 C5.39795989 1.15058556 10.70987333 2.42421759 16 4 C16 4.33 16 4.66 16 5 C15.18015625 4.98839844 14.3603125 4.97679687 13.515625 4.96484375 C12.43796875 4.95582031 11.3603125 4.94679688 10.25 4.9375 C9.18265625 4.92589844 8.1153125 4.91429687 7.015625 4.90234375 C4.09286902 4.87818058 4.09286902 4.87818058 1.734375 5.62890625 C1.16203125 5.75136719 0.5896875 5.87382812 0 6 C-0.66 5.34 -1.32 4.68 -2 4 C-0.68 4 0.64 4 2 4 C2 3.01 2 2.02 2 1 C1.34 0.67 0.68 0.34 0 0 Z " fill="#9EB459" transform="translate(272,283)"/>
<path d="M0 0 C1.44145832 4.58550872 0.74555178 8.56898394 -1 13 C-3.625 15.0625 -3.625 15.0625 -6 16 C-4.43551329 10.3856009 -2.83604813 5.13189662 0 0 Z " fill="#7EAF83" transform="translate(178,111)"/>
<path d="M0 0 C2.31 0.66 4.62 1.32 7 2 C5.515 4.475 5.515 4.475 4 7 C1 6 1 6 0 5 C-0.04063832 3.33382885 -0.042721 1.66611905 0 0 Z M-5 4 C-2.525 4.495 -2.525 4.495 0 5 C0 5.33 0 5.66 0 6 C-1.65 6 -3.3 6 -5 6 C-5 5.34 -5 4.68 -5 4 Z " fill="#9BB646" transform="translate(265,280)"/>
<path d="M0 0 C0.66 0 1.32 0 2 0 C0.44396229 3.81936528 -1.95604931 6.26044438 -5 9 C-5.66 9 -6.32 9 -7 9 C-7.66 10.32 -8.32 11.64 -9 13 C-9.99 13 -10.98 13 -12 13 C-9.2239921 9.40147125 -6.34645017 6.08225674 -3 3 C-2.34 3 -1.68 3 -1 3 C-0.67 2.01 -0.34 1.02 0 0 Z " fill="#8FAF3B" transform="translate(428,256)"/>
<path d="M0 0 C0.66 1.32 1.32 2.64 2 4 C2.66 4 3.32 4 4 4 C5.40454548 10.11980533 6.23268915 15.71739294 6 22 C5.67 22 5.34 22 5 22 C4.80664062 21.03578125 4.61328125 20.0715625 4.4140625 19.078125 C4.15367187 17.81484375 3.89328125 16.5515625 3.625 15.25 C3.24214844 13.37054688 3.24214844 13.37054688 2.8515625 11.453125 C2.16679742 8.131596 2.16679742 8.131596 0.8984375 5.796875 C0 4 0 4 0 0 Z " fill="#77A131" transform="translate(419,130)"/>
<path d="M0 0 C2.94956528 1.36944102 5.52468811 2.87830409 8 5 C8 5.66 8 6.32 8 7 C8.66 7 9.32 7 10 7 C10.33 7.99 10.66 8.98 11 10 C9.68 9.67 8.36 9.34 7 9 C7 8.34 7 7.68 7 7 C6.01 7 5.02 7 4 7 C4 6.34 4 5.68 4 5 C2.68 4.67 1.36 4.34 0 4 C0 2.68 0 1.36 0 0 Z " fill="#A1C342" transform="translate(382,75)"/>
<path d="M0 0 C2.375 0.3125 2.375 0.3125 5 1 C5.66 1.99 6.32 2.98 7 4 C3.77208445 6.1519437 2.71599191 6.20086443 -1 6 C-1 2 -1 2 0 0 Z " fill="#A3C144" transform="translate(241,266)"/>
<path d="M0 0 C0.99 0 1.98 0 3 0 C1.91103333 5.75762166 0.70663707 11.39247819 -1 17 C-1.33 17 -1.66 17 -2 17 C-1.4618629 11.30948637 -0.8599867 5.65134116 0 0 Z " fill="#70A674" transform="translate(459,213)"/>
<path d="M0 0 C1.32 0.66 2.64 1.32 4 2 C2.8572081 3.16964602 1.71068285 4.33564556 0.5625 5.5 C-0.07558594 6.1496875 -0.71367187 6.799375 -1.37109375 7.46875 C-3 9 -3 9 -4 9 C-4.25 6.75 -4.25 6.75 -4 4 C-2 1.6875 -2 1.6875 0 0 Z " fill="#88B05D" transform="translate(232,98)"/>
<path d="M0 0 C1.32 0.33 2.64 0.66 4 1 C-0.62 3.64 -5.24 6.28 -10 9 C-10.33 8.34 -10.66 7.68 -11 7 C-10.34 7 -9.68 7 -9 7 C-9 6.01 -9 5.02 -9 4 C-4.545 3.01 -4.545 3.01 0 2 C0 1.34 0 0.68 0 0 Z " fill="#83AB66" transform="translate(265,76)"/>
<path d="M0 0 C-1.75 1.5625 -1.75 1.5625 -4 3 C-5.34061543 2.69728039 -6.67405895 2.36162029 -8 2 C-8.825 2.350625 -9.65 2.70125 -10.5 3.0625 C-13 4 -13 4 -15.15625 3.05859375 C-15.7646875 2.70925781 -16.373125 2.35992187 -17 2 C-14.73139163 1.4695592 -12.46001511 0.95094566 -10.1875 0.4375 C-8.29064453 0.00244141 -8.29064453 0.00244141 -6.35546875 -0.44140625 C-3 -1 -3 -1 0 0 Z " fill="#238440" transform="translate(285,34)"/>
<path d="M0 0 C0.33 0 0.66 0 1 0 C1.57293869 9.73995772 1.57293869 9.73995772 -2 14 C-2.66 14 -3.32 14 -4 14 C-3.52525225 11.85318469 -3.04508251 9.70756772 -2.5625 7.5625 C-2.29566406 6.36753906 -2.02882813 5.17257813 -1.75390625 3.94140625 C-1 1 -1 1 0 0 Z " fill="#4B963A" transform="translate(457,210)"/>
<path d="M0 0 C0.99 0.33 1.98 0.66 3 1 C2.67 2.98 2.34 4.96 2 7 C0.35 6.67 -1.3 6.34 -3 6 C-3.33 6.99 -3.66 7.98 -4 9 C-4.66 9 -5.32 9 -6 9 C-5.25 6.5625 -5.25 6.5625 -4 4 C-1.875 3.1875 -1.875 3.1875 0 3 C0 2.01 0 1.02 0 0 Z " fill="#5FA160" transform="translate(189,95)"/>
<path d="M0 0 C0.33 0.99 0.66 1.98 1 3 C0.34 3.66 -0.32 4.32 -1 5 C-0.01 6.65 0.98 8.3 2 10 C-2.2742558 8.4169423 -4.26531794 5.49431596 -7 2 C-6.401875 1.855625 -5.80375 1.71125 -5.1875 1.5625 C-3.43849596 1.1127561 -1.71322977 0.57107659 0 0 Z " fill="#B6CA5F" transform="translate(390,90)"/>
<path d="M0 0 C2.64 0 5.28 0 8 0 C7.67 0.99 7.34 1.98 7 3 C5.7625 3.144375 4.525 3.28875 3.25 3.4375 C0.43495501 3.78688502 -2.2701497 4.20379366 -5 5 C-3.625 3.5 -3.625 3.5 -2 2 C-1.34 2 -0.68 2 0 2 C0 1.34 0 0.68 0 0 Z " fill="#218844" transform="translate(262,38)"/>
<path d="M0 0 C0.33 0 0.66 0 1 0 C1.5321441 2.08047297 2.05031786 4.16452293 2.5625 6.25 C2.85253906 7.41015625 3.14257812 8.5703125 3.44140625 9.765625 C3.95179964 12.72090983 4.02996165 14.24434101 3 17 C2.67 16.01 2.34 15.02 2 14 C1.34 14.66 0.68 15.32 0 16 C0 10.72 0 5.44 0 0 Z " fill="#B0C96B" transform="translate(203,197)"/>
<path d="M0 0 C0.66 0 1.32 0 2 0 C2.74813575 4.78806878 0.69491132 7.56710249 -1.80859375 11.42578125 C-2.20175781 11.94527344 -2.59492188 12.46476562 -3 13 C-3.33 13 -3.66 13 -4 13 C-4.30938864 8.46229996 -3.96407351 6.43832528 -1 3 C-0.67 2.01 -0.34 1.02 0 0 Z " fill="#98B965" transform="translate(220,112)"/>
<path d="M0 0 C2.31 0.33 4.62 0.66 7 1 C7.66 2.65 8.32 4.3 9 6 C7.35 6 5.7 6 4 6 C4 5.34 4 4.68 4 4 C3.01 3.67 2.02 3.34 1 3 C0.67 2.01 0.34 1.02 0 0 Z " fill="#3A8A44" transform="translate(372,42)"/>
<path d="M0 0 C2.9297008 2.82506863 5.50174717 5.78796065 8 9 C7.67 9.66 7.34 10.32 7 11 C4.525 10.01 4.525 10.01 2 9 C2.33 7.68 2.66 6.36 3 5 C2.01 5 1.02 5 0 5 C0 3.35 0 1.7 0 0 Z " fill="#B7CB66" transform="translate(219,239)"/>
<path d="M0 0 C0.33 0 0.66 0 1 0 C1.02725341 1.7290774 1.04650987 3.45828176 1.0625 5.1875 C1.07410156 6.15042969 1.08570313 7.11335937 1.09765625 8.10546875 C1.00486622 10.85576513 0.62111685 13.32479591 0 16 C-2.60018816 12.09971775 -2.15085514 8.52565431 -2 4 C-1.34 4 -0.68 4 0 4 C0 2.68 0 1.36 0 0 Z " fill="#398C4A" transform="translate(167,148)"/>
<path d="M0 0 C3.94727588 -0.17942163 6.5980513 -0.09350689 10 2 C10 2.66 10 3.32 10 4 C8.5629191 4.05422947 7.12524538 4.09289723 5.6875 4.125 C4.88699219 4.14820313 4.08648437 4.17140625 3.26171875 4.1953125 C1 4 1 4 -2 2 C-1.34 2 -0.68 2 0 2 C0 1.34 0 0.68 0 0 Z " fill="#3E8E3E" transform="translate(388,52)"/>
<path d="M0 0 C11.70615034 -0.55353075 11.70615034 -0.55353075 16 3 C12.83454798 4.58272601 10.25581122 3.33086619 6.875 2.5625 C4.95300781 2.13130859 4.95300781 2.13130859 2.9921875 1.69140625 C1.51105469 1.34916016 1.51105469 1.34916016 0 1 C0 0.67 0 0.34 0 0 Z " fill="#40903B" transform="translate(316,41)"/>
<path d="M0 0 C0.99 0.33 1.98 0.66 3 1 C2.67 4.96 2.34 8.92 2 13 C1.34 13 0.68 13 0 13 C0 8.71 0 4.42 0 0 Z " fill="#308A45" transform="translate(165,192)"/>
<path d="M0 0 C3.37462715 0.54723683 5.08235 1.0549 8 3 C8.99 3.33 9.98 3.66 11 4 C10.67 4.99 10.34 5.98 10 7 C5.56541027 5.6062718 3.12621626 3.39417765 0 0 Z " fill="#B5C965" transform="translate(373,85)"/>
<path d="M0 0 C0.66 0.33 1.32 0.66 2 1 C0.125 5.875 0.125 5.875 -1 7 C-2.99958364 7.04080783 -5.00045254 7.04254356 -7 7 C-4.66666667 4.66666667 -2.33333333 2.33333333 0 0 Z " fill="#70A56E" transform="translate(220,60)"/>
<path d="M0 0 C0.99 0.33 1.98 0.66 3 1 C4.33568021 0.67619874 5.66923011 0.34342449 7 0 C7.66 0.33 8.32 0.66 9 1 C9 1.66 9 2.32 9 3 C5.61981469 4.04005702 2.5219721 4.08004482 -1 4 C-1 1 -1 1 0 0 Z " fill="#53973F" transform="translate(222,60)"/>
<path d="M0 0 C2 2 2 2 2.125 4.625 C2.08375 5.40875 2.0425 6.1925 2 7 C0.02 7.99 0.02 7.99 -2 9 C-2.6875 6.75 -2.6875 6.75 -3 4 C-1.5625 1.6875 -1.5625 1.6875 0 0 Z " fill="#78A84E" transform="translate(408,291)"/>
<path d="M0 0 C2.92879371 0.62759865 5.36095629 1.58622659 8 3 C8 3.66 8 4.32 8 5 C8.66 5.33 9.32 5.66 10 6 C9.01 6.66 8.02 7.32 7 8 C5.83035398 6.8572081 4.66435444 5.71068285 3.5 4.5625 C2.8503125 3.92441406 2.200625 3.28632813 1.53125 2.62890625 C0 1 0 1 0 0 Z " fill="#529858" transform="translate(199,278)"/>
<path d="M0 0 C0.99 0 1.98 0 3 0 C3 3.3 3 6.6 3 10 C2.01 10.33 1.02 10.66 0 11 C0 7.37 0 3.74 0 0 Z " fill="#64983E" transform="translate(449,117)"/>
<path d="M0 0 C4 0 4 0 7 1 C7 1.99 7 2.98 7 4 C1.25 5.125 1.25 5.125 -1 4 C-0.67 2.68 -0.34 1.36 0 0 Z " fill="#ADC62E" transform="translate(395,98)"/>
<path d="M0 0 C0.33 1.32 0.66 2.64 1 4 C0.01 3.67 -0.98 3.34 -2 3 C-1.67 3.99 -1.34 4.98 -1 6 C-2.32 6.33 -3.64 6.66 -5 7 C-5 5.02 -5 3.04 -5 1 C-3 0 -3 0 0 0 Z " fill="#5E9F41" transform="translate(429,272)"/>
<path d="M0 0 C0.33 0.66 0.66 1.32 1 2 C0.67 2.99 0.34 3.98 0 5 C-0.66 5 -1.32 5 -2 5 C-2.33 6.98 -2.66 8.96 -3 11 C-4 8 -4 8 -3 5 C-4.65 5 -6.3 5 -8 5 C-7.67 4.01 -7.34 3.02 -7 2 C-5.02 2.66 -3.04 3.32 -1 4 C-0.67 2.68 -0.34 1.36 0 0 Z " fill="#579B49" transform="translate(444,251)"/>
<path d="M0 0 C4.26086957 6.39130435 4.26086957 6.39130435 3.625 10.3125 C3.41875 10.869375 3.2125 11.42625 3 12 C1 11 1 11 0 8 C-0.12781786 5.32605036 -0.04391871 2.67904143 0 0 Z " fill="#81A462" transform="translate(452,117)"/>
<path d="M0 0 C0.66 0.66 1.32 1.32 2 2 C1.690625 2.66 1.38125 3.32 1.0625 4 C0.14313625 6.5958506 -0.23299691 8.55084149 -0.5 11.25 C-0.665 12.4875 -0.83 13.725 -1 15 C-1.99 15.495 -1.99 15.495 -3 16 C-3.32712342 9.86946489 -3.39366878 5.37330889 0 0 Z " fill="#418F44" transform="translate(184,103)"/>
<path d="M0 0 C0.33 0.99 0.66 1.98 1 3 C0.01 3.33 -0.98 3.66 -2 4 C-2.73323796 6.01508358 -2.73323796 6.01508358 -3 8 C-3.66 8 -4.32 8 -5 8 C-5.33 8.66 -5.66 9.32 -6 10 C-6.66 9.34 -7.32 8.68 -8 8 C-5.36 5.36 -2.72 2.72 0 0 Z " fill="#74A56B" transform="translate(212,67)"/>
<path d="M0 0 C1.32 1.32 2.64 2.64 4 4 C2.68 4.99 1.36 5.98 0 7 C-1.65 5.35 -3.3 3.7 -5 2 C-3.68 2 -2.36 2 -1 2 C-0.67 1.34 -0.34 0.68 0 0 Z " fill="#68A252" transform="translate(219,291)"/>
<path d="M0 0 C0.93065133 2.60582371 1.14917407 3.64198224 0.0625 6.25 C-0.4634375 7.11625 -0.4634375 7.11625 -1 8 C-2.32 8 -3.64 8 -5 8 C-3.62845496 5.04590299 -2.01136276 2.55991624 0 0 Z " fill="#ACC075" transform="translate(404,242)"/>
<path d="M0 0 C2 3 2 3 2 5 C2.66 5.33 3.32 5.66 4 6 C4.625 8.0625 4.625 8.0625 5 10 C4.01 10.495 4.01 10.495 3 11 C-1.06153846 4.6 -1.06153846 4.6 -0.75 1.5625 C-0.5025 1.046875 -0.255 0.53125 0 0 Z " fill="#5BA16B" transform="translate(178,242)"/>
<path d="M0 0 C0.66 0.99 1.32 1.98 2 3 C1.375 6.125 1.375 6.125 0 9 C-2.125 9.875 -2.125 9.875 -4 10 C-2.8905928 6.51329166 -1.73662334 3.22515763 0 0 Z " fill="#A7BD74" transform="translate(414,224)"/>
<path d="M0 0 C0.66 2.31 1.32 4.62 2 7 C0.35 7 -1.3 7 -3 7 C-3.33 5.02 -3.66 3.04 -4 1 C-1 0 -1 0 0 0 Z " fill="#B2CD32" transform="translate(413,116)"/>
<path d="M0 0 C0.99 0.33 1.98 0.66 3 1 C3.75 2.9375 3.75 2.9375 4 5 C3.67 5.66 3.34 6.32 3 7 C3.99 6.67 4.98 6.34 6 6 C6 6.66 6 7.32 6 8 C3.03 7.505 3.03 7.505 0 7 C0 4.69 0 2.38 0 0 Z " fill="#559341" transform="translate(432,88)"/>
<path d="M0 0 C2.97 0 5.94 0 9 0 C9 2 9 2 7.5 3.625 C7.005 4.07875 6.51 4.5325 6 5 C3.5625 4.1875 3.5625 4.1875 1 3 C0.67 2.01 0.34 1.02 0 0 Z " fill="#ACC34E" transform="translate(367,80)"/>
<path d="M0 0 C0 1.65 0 3.3 0 5 C-1.65 5 -3.3 5 -5 5 C-5.33 4.01 -5.66 3.02 -6 2 C-3 0 -3 0 0 0 Z " fill="#A4C23C" transform="translate(283,320)"/>
<path d="M0 0 C0.66 0 1.32 0 2 0 C2.33 2.97 2.66 5.94 3 9 C2.34 9 1.68 9 1 9 C1 7.68 1 6.36 1 5 C0.34 5 -0.32 5 -1 5 C-0.67 3.35 -0.34 1.7 0 0 Z " fill="#B4C934" transform="translate(414,124)"/>
<path d="M0 0 C-0.33 1.65 -0.66 3.3 -1 5 C-3.4375 4.1875 -3.4375 4.1875 -6 3 C-6.33 2.01 -6.66 1.02 -7 0 C-2.25 -1.125 -2.25 -1.125 0 0 Z " fill="#B4CB4E" transform="translate(401,102)"/>
<path d="M0 0 C0.66 0.33 1.32 0.66 2 1 C-1.96 4.465 -1.96 4.465 -6 8 C-6.66 7.67 -7.32 7.34 -8 7 C-5.42215154 4.35247996 -3.08351902 2.05567935 0 0 Z " fill="#6BA13A" transform="translate(415,272)"/>
<path d="M0 0 C2.00720923 0.28674418 4.0085944 0.61866701 6 1 C5.01 1.33 4.02 1.66 3 2 C2.67 2.99 2.34 3.98 2 5 C1.01 5.33 0.02 5.66 -1 6 C-1.042721 4.33388095 -1.04063832 2.66617115 -1 1 C-0.67 0.67 -0.34 0.34 0 0 Z " fill="#A3C13A" transform="translate(369,67)"/>
<path d="M0 0 C-0.99 0.33 -1.98 0.66 -3 1 C-3 1.66 -3 2.32 -3 3 C-5.64 3 -8.28 3 -11 3 C-8.21756596 -1.17365106 -4.53441502 -0.22300402 0 0 Z " fill="#87AD50" transform="translate(303,66)"/>
<path d="M0 0 C2.97 1.65 5.94 3.3 9 5 C9 5.33 9 5.66 9 6 C7.35 6 5.7 6 4 6 C4 5.67 4 5.34 4 5 C2.35 4.67 0.7 4.34 -1 4 C-0.67 2.68 -0.34 1.36 0 0 Z " fill="#69A26C" transform="translate(389,48)"/>
<path d="M0 0 C0.99 0 1.98 0 3 0 C4.75 2.3125 4.75 2.3125 6 5 C5.67 5.99 5.34 6.98 5 8 C2.5 5.6875 2.5 5.6875 0 3 C0 2.01 0 1.02 0 0 Z " fill="#99C442" transform="translate(213,283)"/>
<path d="M0 0 C2 1 2 1 2 1 Z M-4 1 C-1.9375 1.4375 -1.9375 1.4375 0 2 C-1.25 4 -1.25 4 -3 6 C-4.32 6 -5.64 6 -7 6 C-5.125 2.125 -5.125 2.125 -4 1 Z " fill="#94A838" transform="translate(387,265)"/>
<path d="M0 0 C0.66 0 1.32 0 2 0 C2 0.66 2 1.32 2 2 C2.66 2 3.32 2 4 2 C4 2.66 4 3.32 4 4 C5.32 4.33 6.64 4.66 8 5 C7.67 5.66 7.34 6.32 7 7 C5.1875 6.8125 5.1875 6.8125 3 6 C0 1.71428571 0 1.71428571 0 0 Z " fill="#6FA039" transform="translate(408,106)"/>
<path d="M0 0 C-0.33 1.32 -0.66 2.64 -1 4 C-2.65 3.67 -4.3 3.34 -6 3 C-6 2.01 -6 1.02 -6 0 C-3.50907189 -1.24546405 -2.58919267 -0.7767578 0 0 Z " fill="#439444" transform="translate(192,101)"/>
<path d="M0 0 C3.39417765 3.12621626 5.6062718 5.56541027 7 10 C6.21625 9.34 5.4325 8.68 4.625 8 C2.28487188 5.79798559 2.28487188 5.79798559 0 6 C0 4.02 0 2.04 0 0 Z " fill="#88B07B" transform="translate(435,89)"/>
<path d="M0 0 C0.99 0.33 1.98 0.66 3 1 C2.67 2.32 2.34 3.64 2 5 C0.68 5.33 -0.64 5.66 -2 6 C-2 4.35 -2 2.7 -2 1 C-1.34 0.67 -0.68 0.34 0 0 Z " fill="#4D923B" transform="translate(427,82)"/>
<path d="M0 0 C3.77545388 1.09068668 6.47043472 1.9083091 9 5 C3.5 5.36666667 3.5 5.36666667 1.125 3.625 C0 2 0 2 0 0 Z " fill="#6B9D71" transform="translate(379,43)"/>
<path d="M0 0 C-0.33 1.32 -0.66 2.64 -1 4 C-1.66 3.67 -2.32 3.34 -3 3 C-3.66 3.99 -4.32 4.98 -5 6 C-5.33 4.02 -5.66 2.04 -6 0 C-3 -1 -3 -1 0 0 Z " fill="#62A04D" transform="translate(438,265)"/>
<path d="M0 0 C2.97 0.33 5.94 0.66 9 1 C7.515 2.485 7.515 2.485 6 4 C4.02 3.34 2.04 2.68 0 2 C0 1.34 0 0.68 0 0 Z " fill="#9DBB3F" transform="translate(351,72)"/>
<path d="M0 0 C2.625 0.375 2.625 0.375 5 1 C4.67 2.32 4.34 3.64 4 5 C3.34 5 2.68 5 2 5 C2 4.34 2 3.68 2 3 C0.68 2.67 -0.64 2.34 -2 2 C-1.34 1.34 -0.68 0.68 0 0 Z " fill="#96BA3B" transform="translate(340,51)"/>
<path d="M0 0 C1.32 0 2.64 0 4 0 C4.33 1.32 4.66 2.64 5 4 C3.35 4 1.7 4 0 4 C0 2.68 0 1.36 0 0 Z " fill="#6CA63E" transform="translate(401,296)"/>
<path d="M0 0 C0.33 0 0.66 0 1 0 C1.33 1.98 1.66 3.96 2 6 C0.02 6.66 -1.96 7.32 -4 8 C-2.87548273 5.0280615 -1.77706209 2.66559313 0 0 Z " fill="#ABBB74" transform="translate(409,234)"/>
<path d="M0 0 C1 2 1 2 0.44140625 3.9453125 C0.15136719 4.66460937 -0.13867188 5.38390625 -0.4375 6.125 C-0.72496094 6.84945312 -1.01242187 7.57390625 -1.30859375 8.3203125 C-1.53675781 8.87460938 -1.76492188 9.42890625 -2 10 C-2.66 9.67 -3.32 9.34 -4 9 C-3.46930939 5.17902761 -2.50298434 2.93828597 0 0 Z " fill="#71A66C" transform="translate(456,230)"/>
<path d="M0 0 C3.53586014 3.17320782 5.58578031 5.16743695 6 10 C5.34 9.67 4.68 9.34 4 9 C4 8.01 4 7.02 4 6 C2.68 5.34 1.36 4.68 0 4 C0 2.68 0 1.36 0 0 Z " fill="#8FBB39" transform="translate(402,96)"/>
<path d="M0 0 C1.65 0 3.3 0 5 0 C4.67 0.66 4.34 1.32 4 2 C3.34 2 2.68 2 2 2 C2 2.66 2 3.32 2 4 C0.02 4 -1.96 4 -4 4 C-3.67 3.34 -3.34 2.68 -3 2 C-2.01 2 -1.02 2 0 2 C0 1.34 0 0.68 0 0 Z " fill="#93B03A" transform="translate(382,288)"/>
<path d="M0 0 C1.32 0.66 2.64 1.32 4 2 C3.67 2.99 3.34 3.98 3 5 C2.01 5.33 1.02 5.66 0 6 C-0.38218767 4.34385343 -0.71395102 2.67542976 -1 1 C-0.67 0.67 -0.34 0.34 0 0 Z " fill="#ABC92F" transform="translate(199,255)"/>
<path d="M0 0 C0.99 0 1.98 0 3 0 C2.67 1.65 2.34 3.3 2 5 C1.01 5.33 0.02 5.66 -1 6 C-0.67 4.02 -0.34 2.04 0 0 Z " fill="#8DAA35" transform="translate(399,250)"/>
<path d="M0 0 C0.66 0.33 1.32 0.66 2 1 C1.375 2.9375 1.375 2.9375 0 5 C-3.125 5.75 -3.125 5.75 -6 6 C-4 4 -2 2 0 0 Z " fill="#6CA572" transform="translate(228,54)"/>
<path d="M0 0 C4.81938524 -0.23509196 8.46298506 0.54815522 13 2 C13 2.33 13 2.66 13 3 C8.07872966 3.16682272 4.49656104 3.24828052 0 1 C0 0.67 0 0.34 0 0 Z " fill="#B1C664" transform="translate(285,327)"/>
<path d="M0 0 C1.65 0.33 3.3 0.66 5 1 C2.6875 3.0625 2.6875 3.0625 0 5 C-0.99 4.67 -1.98 4.34 -3 4 C-3 3.34 -3 2.68 -3 2 C-2.01 2 -1.02 2 0 2 C0 1.34 0 0.68 0 0 Z " fill="#8AB162" transform="translate(394,304)"/>
<path d="M0 0 C2.64 0 5.28 0 8 0 C8 0.99 8 1.98 8 3 C6.02 3 4.04 3 2 3 C2 2.34 2 1.68 2 1 C1.34 0.67 0.68 0.34 0 0 Z " fill="#6AA144" transform="translate(409,288)"/>
<path d="M0 0 C0.33 0.66 0.66 1.32 1 2 C0 5 0 5 -3.0625 6.6875 C-4.031875 7.120625 -5.00125 7.55375 -6 8 C-4.55746343 4.63408134 -2.66735273 2.48952921 0 0 Z " fill="#B5C988" transform="translate(398,250)"/>
<path d="M0 0 C0.66 0 1.32 0 2 0 C2 0.66 2 1.32 2 2 C2.99 2 3.98 2 5 2 C5.33 4.31 5.66 6.62 6 9 C3.59927045 6.11912454 1.52708963 3.43595166 0 0 Z " fill="#C1D672" transform="translate(402,112)"/>
<path d="M0 0 C0.33 0.66 0.66 1.32 1 2 C1.66 2.33 2.32 2.66 3 3 C2.67 3.33 2.34 3.66 2 4 C2.66 4.33 3.32 4.66 4 5 C3.67 5.99 3.34 6.98 3 8 C2.01 8 1.02 8 0 8 C0 5.36 0 2.72 0 0 Z " fill="#438E3E" transform="translate(400,56)"/>
<path d="M0 0 C0 0.66 0 1.32 0 2 C0.66 2.33 1.32 2.66 2 3 C-4.75 4.125 -4.75 4.125 -7 3 C-2.25 0 -2.25 0 0 0 Z " fill="#5BA16B" transform="translate(242,47)"/>
<path d="M0 0 C3.63 0 7.26 0 11 0 C11 0.33 11 0.66 11 1 C3.375 3.125 3.375 3.125 0 2 C0 1.34 0 0.68 0 0 Z " fill="#88B33B" transform="translate(304,42)"/>
<path d="M0 0 C1.9453125 -0.29296875 1.9453125 -0.29296875 4.125 -0.1875 C5.40375 -0.125625 6.6825 -0.06375 8 0 C8 0.66 8 1.32 8 2 C4.7 2.33 1.4 2.66 -2 3 C-1.34 2.01 -0.68 1.02 0 0 Z " fill="#91B139" transform="translate(360,296)"/>
<path d="M0 0 C2 3 2 3 2 5 C-0.97 4.505 -0.97 4.505 -4 4 C-4 3.34 -4 2.68 -4 2 C-2.68 1.34 -1.36 0.68 0 0 Z " fill="#63A042" transform="translate(420,280)"/>
<path d="M0 0 C0 0.66 0 1.32 0 2 C-0.66 2 -1.32 2 -2 2 C-2.33 2.99 -2.66 3.98 -3 5 C-4.32 4.34 -5.64 3.68 -7 3 C-2.25 0 -2.25 0 0 0 Z " fill="#B0C167" transform="translate(370,275)"/>
<path d="M0 0 C0.66 0.33 1.32 0.66 2 1 C1.34 2.65 0.68 4.3 0 6 C-1.32 5.67 -2.64 5.34 -4 5 C-4 4.34 -4 3.68 -4 3 C-3.01 3 -2.02 3 -1 3 C-0.67 2.01 -0.34 1.02 0 0 Z " fill="#4F983D" transform="translate(443,249)"/>
<path d="M0 0 C0 3 0 3 -2 5.1875 C-2.66 5.785625 -3.32 6.38375 -4 7 C-4.33 5.68 -4.66 4.36 -5 3 C-3.35 2.01 -1.7 1.02 0 0 Z " fill="#559843" transform="translate(213,113)"/>
<path d="M0 0 C1.65 1.32 3.3 2.64 5 4 C4.67 4.66 4.34 5.32 4 6 C1.525 5.01 1.525 5.01 -1 4 C-0.67 2.68 -0.34 1.36 0 0 Z " fill="#75A768" transform="translate(430,83)"/>
<path d="M0 0 C3.36591866 1.44253657 5.51047079 3.33264727 8 6 C5.03 5.505 5.03 5.505 2 5 C2 4.01 2 3.02 2 2 C1.34 2 0.68 2 0 2 C0 1.34 0 0.68 0 0 Z " fill="#73A46E" transform="translate(406,60)"/>
</svg>
